<svg width="360" height="800" viewBox="0 0 360 800" fill="none" xmlns="http://www.w3.org/2000/svg">
    <g clip-path="url(#clip0_19_2)">
        <rect width="360" height="800" fill="#18202B" />
        <path
            d="M72.123 398.647L46.9717 367.37V389.633C46.9717 391.094 47.0381 392.289 47.1709 393.219C47.3369 394.115 47.6191 394.829 48.0176 395.36C48.416 395.892 48.9639 396.273 49.6611 396.506C50.3584 396.738 51.2549 396.888 52.3506 396.954V398H39.0029V396.954C40.165 396.854 41.0947 396.705 41.792 396.506C42.5225 396.273 43.0703 395.892 43.4355 395.36C43.834 394.829 44.0996 394.115 44.2324 393.219C44.3652 392.289 44.4316 391.094 44.4316 389.633V364.631C43.8672 363.967 43.3857 363.436 42.9873 363.037C42.5889 362.605 42.1904 362.29 41.792 362.091C41.3936 361.858 40.9785 361.709 40.5469 361.643C40.1152 361.543 39.6006 361.493 39.0029 361.493V360.348H48.7148L70.5791 387.89V368.715C70.5791 365.262 70.0312 363.137 68.9355 362.34C68.5039 362.074 68.0225 361.892 67.4912 361.792C66.9932 361.659 66.2129 361.56 65.1504 361.493V360.348H78.4482V361.493C77.3857 361.56 76.5889 361.676 76.0576 361.842C75.5596 362.008 75.1279 362.224 74.7627 362.489C73.6338 363.22 73.0693 365.295 73.0693 368.715V398.647H72.123ZM103.45 389.085C102.255 392.206 100.628 394.563 98.5693 396.157C96.5439 397.751 94.1533 398.548 91.3975 398.548C89.7705 398.548 88.293 398.249 86.9648 397.651C85.6699 397.054 84.5576 396.207 83.6279 395.111C82.6982 394.016 81.9844 392.688 81.4863 391.127C80.9883 389.566 80.7393 387.807 80.7393 385.848C80.7393 383.756 81.0215 381.847 81.5859 380.12C82.1836 378.394 82.9971 376.916 84.0264 375.688C85.0889 374.426 86.3506 373.446 87.8115 372.749C89.2725 372.052 90.8828 371.703 92.6426 371.703C94.1367 371.703 95.498 371.985 96.7266 372.55C97.9883 373.114 99.0508 373.911 99.9141 374.94C100.279 375.405 100.578 375.87 100.811 376.335C101.076 376.8 101.292 377.314 101.458 377.879C101.657 378.443 101.823 379.074 101.956 379.771C102.089 380.469 102.222 381.266 102.354 382.162H84.873C84.9395 383.988 85.0889 385.499 85.3213 386.694C85.5869 387.856 86.002 388.985 86.5664 390.081C88.1934 393.136 90.584 394.663 93.7383 394.663C95.5645 394.663 97.1416 394.215 98.4697 393.318C99.8311 392.422 101.192 390.895 102.554 388.736L103.45 389.085ZM96.5771 380.27C96.2119 377.812 95.6143 376.119 94.7842 375.189C93.9873 374.227 92.7256 373.745 90.999 373.745C89.2393 373.745 87.8613 374.26 86.8652 375.289C85.9023 376.318 85.2715 377.979 84.9727 380.27H96.5771ZM144.091 372.4V373.297C143.792 373.396 143.543 373.496 143.344 373.596C143.178 373.695 143.012 373.845 142.846 374.044C142.68 374.243 142.514 374.525 142.348 374.891C142.182 375.256 141.966 375.737 141.7 376.335L133.881 396.008C133.648 396.572 133.449 397.037 133.283 397.402C133.15 397.768 133.018 398.05 132.885 398.249C132.785 398.448 132.686 398.581 132.586 398.647C132.486 398.747 132.387 398.797 132.287 398.797C132.088 398.797 131.922 398.647 131.789 398.349C131.656 398.083 131.357 397.419 130.893 396.356L125.763 382.959L119.338 396.605C118.674 398.066 118.209 398.797 117.943 398.797C117.611 398.797 117.113 397.967 116.449 396.307L108.779 376.833C108.48 376.103 108.215 375.521 107.982 375.09C107.75 374.625 107.518 374.276 107.285 374.044C107.086 373.778 106.87 373.596 106.638 373.496C106.405 373.396 106.123 373.33 105.791 373.297V372.4H116.001V373.297C115.005 373.43 114.308 373.629 113.909 373.895C113.544 374.127 113.361 374.542 113.361 375.14C113.361 375.671 113.494 376.235 113.76 376.833L119.338 391.725L124.567 380.369L123.422 377.182C123.123 376.418 122.841 375.804 122.575 375.339C122.343 374.841 122.077 374.459 121.778 374.193C121.513 373.928 121.197 373.729 120.832 373.596C120.467 373.463 120.019 373.363 119.487 373.297V372.4H130.992V373.297C129.697 373.463 128.834 373.695 128.402 373.994C127.971 374.26 127.755 374.691 127.755 375.289C127.755 375.488 127.755 375.654 127.755 375.787C127.788 375.887 127.821 376.053 127.854 376.285C127.921 376.484 128.021 376.767 128.153 377.132C128.286 377.497 128.469 378.012 128.701 378.676L133.482 391.426L138.612 378.775C138.944 378.012 139.177 377.314 139.31 376.684C139.476 376.02 139.559 375.455 139.559 374.99C139.559 374.525 139.376 374.177 139.011 373.944C138.646 373.679 137.981 373.463 137.019 373.297V372.4H144.091ZM162.618 380.17C161.987 377.613 161.207 375.804 160.277 374.741C159.348 373.679 158.069 373.147 156.442 373.147C155.114 373.147 154.052 373.513 153.255 374.243C152.458 374.94 152.06 375.87 152.06 377.032C152.06 378.659 152.873 379.954 154.5 380.917L160.626 384.553C162.353 385.582 163.581 386.611 164.312 387.641C165.042 388.637 165.407 389.849 165.407 391.276C165.407 392.272 165.191 393.219 164.76 394.115C164.328 395.012 163.747 395.792 163.017 396.456C162.319 397.087 161.489 397.602 160.526 398C159.563 398.365 158.534 398.548 157.438 398.548C156.841 398.548 156.193 398.498 155.496 398.398C154.799 398.332 154.035 398.199 153.205 398C152.541 397.834 152.026 397.718 151.661 397.651C151.296 397.585 150.947 397.552 150.615 397.552C150.283 397.552 150.034 397.602 149.868 397.701C149.702 397.801 149.52 397.983 149.32 398.249H148.573V389.384H149.47C149.802 390.845 150.184 392.073 150.615 393.069C151.047 394.065 151.545 394.879 152.109 395.51C152.674 396.141 153.338 396.605 154.102 396.904C154.865 397.17 155.729 397.303 156.691 397.303C158.186 397.303 159.348 396.938 160.178 396.207C161.041 395.477 161.473 394.48 161.473 393.219C161.473 391.525 160.477 390.114 158.484 388.985L155.197 387.093C153.969 386.396 152.923 385.731 152.06 385.101C151.229 384.47 150.549 383.839 150.018 383.208C149.486 382.544 149.104 381.863 148.872 381.166C148.64 380.469 148.523 379.722 148.523 378.925C148.523 377.896 148.706 376.949 149.071 376.086C149.47 375.223 150.001 374.476 150.665 373.845C151.362 373.214 152.192 372.732 153.155 372.4C154.118 372.068 155.181 371.902 156.343 371.902C157.671 371.902 158.949 372.135 160.178 372.6C160.875 372.898 161.406 373.048 161.771 373.048C161.904 373.048 162.004 373.015 162.07 372.948C162.137 372.882 162.303 372.732 162.568 372.5L162.618 372.4H163.315L163.515 380.17H162.618Z"
            fill="#6BA8F0" />
        <path
            d="M199.573 360.348C204.521 360.348 208.239 361.161 210.729 362.788C213.22 364.415 214.465 366.822 214.465 370.01C214.465 371.172 214.266 372.268 213.867 373.297C213.469 374.293 212.904 375.106 212.174 375.737C211.809 376.036 211.46 376.302 211.128 376.534C210.796 376.767 210.414 376.982 209.982 377.182C209.584 377.348 209.103 377.514 208.538 377.68C208.007 377.846 207.376 378.028 206.646 378.228C207.575 378.427 208.372 378.626 209.036 378.825C209.733 379.024 210.348 379.257 210.879 379.522C211.41 379.755 211.892 380.021 212.323 380.319C212.755 380.618 213.187 380.967 213.618 381.365C215.478 383.025 216.407 385.167 216.407 387.79C216.407 389.384 216.092 390.812 215.461 392.073C214.83 393.335 213.917 394.414 212.722 395.311C211.526 396.174 210.082 396.838 208.389 397.303C206.695 397.768 204.786 398 202.661 398H183.636V396.954C184.798 396.921 185.728 396.838 186.425 396.705C187.155 396.539 187.72 396.273 188.118 395.908C188.517 395.543 188.782 395.045 188.915 394.414C189.048 393.75 189.114 392.903 189.114 391.874V366.573C189.114 365.511 189.048 364.664 188.915 364.033C188.815 363.402 188.566 362.904 188.168 362.539C187.77 362.174 187.205 361.925 186.475 361.792C185.777 361.659 184.831 361.56 183.636 361.493V360.348H199.573ZM194.842 393.567C194.842 394.497 195.091 395.128 195.589 395.46C196.087 395.759 197 395.908 198.328 395.908C199.324 395.908 200.204 395.892 200.968 395.858C201.765 395.792 202.479 395.709 203.109 395.609C203.773 395.477 204.371 395.311 204.902 395.111C205.434 394.912 205.932 394.68 206.396 394.414C208.721 393.086 209.883 390.895 209.883 387.84C209.883 384.254 208.239 381.83 204.952 380.568C204.421 380.369 203.84 380.203 203.209 380.07C202.611 379.938 201.914 379.838 201.117 379.771C200.354 379.672 199.457 379.605 198.428 379.572C197.398 379.506 196.203 379.473 194.842 379.473V393.567ZM200.32 377.182C203.01 377.182 205.068 376.601 206.496 375.438C207.957 374.243 208.688 372.517 208.688 370.259C208.688 367.669 207.841 365.727 206.147 364.432C204.454 363.137 201.947 362.489 198.627 362.489H196.137C195.273 362.489 194.842 363.054 194.842 364.183V377.182H200.32ZM234.785 371.853C236.611 371.853 238.288 372.168 239.815 372.799C241.343 373.43 242.654 374.326 243.75 375.488C244.879 376.617 245.759 377.962 246.39 379.522C247.021 381.083 247.336 382.81 247.336 384.702C247.336 386.694 247.004 388.537 246.34 390.23C245.709 391.891 244.829 393.352 243.7 394.613C242.571 395.842 241.227 396.805 239.666 397.502C238.139 398.199 236.479 398.548 234.686 398.548C232.893 398.548 231.232 398.216 229.705 397.552C228.178 396.888 226.866 395.958 225.771 394.763C224.675 393.567 223.812 392.156 223.181 390.529C222.55 388.902 222.234 387.126 222.234 385.2C222.234 383.241 222.533 381.448 223.131 379.821C223.762 378.161 224.625 376.75 225.721 375.588C226.816 374.393 228.128 373.479 229.655 372.849C231.216 372.185 232.926 371.853 234.785 371.853ZM233.938 373.446C231.946 373.446 230.353 374.26 229.157 375.887C227.962 377.514 227.364 379.672 227.364 382.361C227.364 384.387 227.58 386.362 228.012 388.288C228.443 390.181 229.058 391.874 229.854 393.368C230.452 394.53 231.249 395.427 232.245 396.058C233.241 396.688 234.32 397.004 235.482 397.004C237.574 397.004 239.201 396.091 240.363 394.265C241.559 392.405 242.156 389.865 242.156 386.645C242.156 384.221 241.808 381.963 241.11 379.871C240.413 377.779 239.467 376.202 238.271 375.14C237.641 374.542 236.977 374.11 236.279 373.845C235.582 373.579 234.802 373.446 233.938 373.446ZM269.947 392.023C269.947 393.285 270.063 394.165 270.296 394.663C270.528 395.128 270.977 395.36 271.641 395.36C272.404 395.36 273.234 395.012 274.131 394.314V395.759C273.168 396.821 272.321 397.552 271.591 397.95C270.86 398.349 270.014 398.548 269.051 398.548C267.889 398.548 267.025 398.232 266.461 397.602C265.93 396.938 265.598 395.842 265.465 394.314C263.738 395.809 262.228 396.888 260.933 397.552C259.638 398.216 258.376 398.548 257.147 398.548C255.354 398.548 253.894 397.983 252.765 396.854C251.669 395.726 251.121 394.265 251.121 392.472C251.121 391.575 251.287 390.679 251.619 389.782C251.984 388.853 252.499 388.105 253.163 387.541C253.761 387.01 254.309 386.562 254.807 386.196C255.338 385.798 256.019 385.399 256.849 385.001C257.679 384.569 258.758 384.088 260.086 383.557C261.414 383.025 263.174 382.312 265.365 381.415V377.779C265.365 376.219 264.983 375.04 264.22 374.243C263.489 373.446 262.427 373.048 261.032 373.048C259.87 373.048 258.891 373.33 258.094 373.895C257.33 374.426 256.948 375.073 256.948 375.837C256.948 376.136 256.981 376.518 257.048 376.982C257.147 377.447 257.197 377.829 257.197 378.128C257.197 378.792 256.932 379.356 256.4 379.821C255.902 380.286 255.321 380.519 254.657 380.519C253.993 380.519 253.412 380.286 252.914 379.821C252.449 379.323 252.217 378.742 252.217 378.078C252.217 377.348 252.416 376.601 252.814 375.837C253.246 375.073 253.827 374.393 254.558 373.795C255.321 373.131 256.334 372.616 257.596 372.251C258.891 371.886 260.285 371.703 261.779 371.703C263.506 371.703 264.95 372.002 266.112 372.6C267.308 373.164 268.221 373.961 268.852 374.99C269.25 375.654 269.532 376.435 269.698 377.331C269.864 378.194 269.947 379.373 269.947 380.867V392.023ZM265.365 382.81C263.639 383.44 262.161 384.055 260.933 384.652C259.737 385.217 258.758 385.814 257.994 386.445C257.264 387.043 256.732 387.69 256.4 388.388C256.068 389.085 255.902 389.849 255.902 390.679V390.928C255.902 391.525 256.002 392.106 256.201 392.671C256.4 393.202 256.666 393.667 256.998 394.065C257.363 394.464 257.778 394.779 258.243 395.012C258.708 395.244 259.189 395.36 259.688 395.36C260.285 395.36 260.949 395.244 261.68 395.012C262.443 394.746 263.157 394.431 263.821 394.065C264.485 393.7 264.9 393.318 265.066 392.92C265.266 392.521 265.365 391.891 265.365 391.027V382.81ZM274.679 374.99C275.509 374.691 276.272 374.426 276.97 374.193C277.667 373.928 278.331 373.679 278.962 373.446C279.626 373.181 280.273 372.932 280.904 372.699C281.568 372.434 282.282 372.151 283.046 371.853L283.395 371.952V377.182C284.092 376.152 284.723 375.306 285.287 374.642C285.852 373.944 286.399 373.396 286.931 372.998C287.462 372.566 287.977 372.268 288.475 372.102C289.006 371.936 289.57 371.853 290.168 371.853C291.131 371.853 291.895 372.135 292.459 372.699C293.023 373.23 293.306 373.944 293.306 374.841C293.306 375.671 293.106 376.318 292.708 376.783C292.31 377.215 291.778 377.431 291.114 377.431C290.749 377.431 290.384 377.364 290.019 377.231C289.687 377.065 289.288 376.75 288.823 376.285C288.524 376.02 288.242 375.82 287.977 375.688C287.711 375.555 287.495 375.488 287.329 375.488C286.931 375.488 286.499 375.654 286.034 375.986C285.603 376.285 285.188 376.667 284.789 377.132C284.391 377.597 284.059 378.095 283.793 378.626C283.527 379.157 283.395 379.655 283.395 380.12V392.92C283.395 393.717 283.461 394.381 283.594 394.912C283.727 395.443 283.976 395.875 284.341 396.207C284.706 396.506 285.204 396.738 285.835 396.904C286.466 397.07 287.263 397.17 288.226 397.203V398H274.529V397.203C275.426 397.037 276.14 396.871 276.671 396.705C277.235 396.506 277.65 396.273 277.916 396.008C278.215 395.742 278.397 395.394 278.464 394.962C278.563 394.497 278.613 393.916 278.613 393.219V379.024C278.613 377.763 278.464 376.883 278.165 376.385C277.866 375.854 277.368 375.588 276.671 375.588C276.306 375.588 275.974 375.604 275.675 375.638C275.409 375.671 275.077 375.737 274.679 375.837V374.99ZM312.58 398.398V394.713C311.617 396.107 310.555 397.104 309.393 397.701C308.264 398.266 306.902 398.548 305.309 398.548C303.715 398.548 302.271 398.266 300.976 397.701C299.681 397.104 298.568 396.273 297.639 395.211C296.742 394.115 296.028 392.82 295.497 391.326C294.999 389.832 294.75 388.172 294.75 386.346C294.75 384.32 295.065 382.428 295.696 380.668C296.327 378.908 297.174 377.364 298.236 376.036C299.299 374.708 300.544 373.662 301.972 372.898C303.433 372.135 304.977 371.753 306.604 371.753C307.766 371.753 308.778 371.936 309.642 372.301C310.505 372.633 311.484 373.264 312.58 374.193V365.428C312.58 364.266 312.397 363.485 312.032 363.087C311.7 362.688 311.003 362.489 309.94 362.489C309.708 362.489 309.492 362.506 309.293 362.539C309.127 362.539 308.928 362.556 308.695 362.589V361.593C309.592 361.36 310.405 361.161 311.136 360.995C311.866 360.796 312.547 360.613 313.178 360.447C313.842 360.248 314.473 360.049 315.07 359.85C315.701 359.65 316.365 359.418 317.062 359.152L317.361 359.302V391.525C317.361 392.854 317.511 393.733 317.81 394.165C318.142 394.563 318.822 394.763 319.852 394.763C320.018 394.763 320.217 394.763 320.449 394.763C320.715 394.729 320.964 394.713 321.196 394.713V395.609L312.829 398.548L312.58 398.398ZM312.58 379.024C312.58 378.294 312.414 377.597 312.082 376.933C311.783 376.235 311.368 375.621 310.837 375.09C310.306 374.559 309.675 374.144 308.944 373.845C308.247 373.513 307.517 373.347 306.753 373.347C305.69 373.347 304.711 373.612 303.814 374.144C302.951 374.642 302.204 375.372 301.573 376.335C300.976 377.265 300.511 378.394 300.179 379.722C299.847 381.017 299.681 382.461 299.681 384.055C299.681 385.814 299.863 387.408 300.229 388.836C300.594 390.264 301.108 391.476 301.772 392.472C302.47 393.468 303.3 394.248 304.263 394.812C305.226 395.344 306.305 395.609 307.5 395.609C309.293 395.609 310.688 395.012 311.684 393.816C312.281 393.152 312.58 392.621 312.58 392.223V379.024Z"
            fill="#F4F9FF" />
        <path
            d="M76.5405 429.113C79.5477 429.113 81.8081 429.608 83.3218 430.597C84.8354 431.586 85.5923 433.049 85.5923 434.986C85.5923 435.693 85.4712 436.359 85.229 436.984C84.9868 437.59 84.6437 438.084 84.1997 438.468C83.9777 438.649 83.7658 438.811 83.564 438.952C83.3621 439.093 83.13 439.225 82.8677 439.346C82.6255 439.447 82.3328 439.548 81.9897 439.648C81.6668 439.749 81.2834 439.86 80.8394 439.981C81.4045 440.103 81.8888 440.224 82.2925 440.345C82.7163 440.466 83.0897 440.607 83.4126 440.769C83.7355 440.91 84.0282 441.071 84.2905 441.253C84.5529 441.435 84.8153 441.646 85.0776 441.889C86.2078 442.898 86.7729 444.2 86.7729 445.794C86.7729 446.763 86.5812 447.631 86.1978 448.397C85.8143 449.164 85.2593 449.82 84.5327 450.365C83.8062 450.89 82.9282 451.294 81.8989 451.576C80.8696 451.859 79.7091 452 78.4175 452H66.853V451.364C67.5594 451.344 68.1245 451.294 68.5483 451.213C68.9924 451.112 69.3354 450.951 69.5776 450.729C69.8198 450.507 69.9813 450.204 70.062 449.82C70.1427 449.417 70.1831 448.902 70.1831 448.276V432.897C70.1831 432.252 70.1427 431.737 70.062 431.354C70.0015 430.97 69.8501 430.667 69.6079 430.445C69.3657 430.223 69.0226 430.072 68.5786 429.991C68.1548 429.91 67.5796 429.85 66.853 429.81V429.113H76.5405ZM73.6646 449.306C73.6646 449.871 73.8159 450.254 74.1187 450.456C74.4214 450.638 74.9764 450.729 75.7837 450.729C76.3892 450.729 76.924 450.718 77.3882 450.698C77.8726 450.658 78.3065 450.607 78.6899 450.547C79.0936 450.466 79.4569 450.365 79.7798 450.244C80.1027 450.123 80.4054 449.982 80.688 449.82C82.1007 449.013 82.8071 447.681 82.8071 445.824C82.8071 443.645 81.8081 442.171 79.8101 441.404C79.4871 441.283 79.134 441.182 78.7505 441.102C78.3872 441.021 77.9634 440.96 77.479 440.92C77.0148 440.859 76.4699 440.819 75.8442 440.799C75.2186 440.758 74.492 440.738 73.6646 440.738V449.306ZM76.9946 439.346C78.6294 439.346 79.8807 438.993 80.7485 438.286C81.6366 437.56 82.0806 436.51 82.0806 435.138C82.0806 433.563 81.5659 432.383 80.5366 431.596C79.5073 430.809 77.9836 430.415 75.9653 430.415H74.4517C73.9269 430.415 73.6646 430.758 73.6646 431.444V439.346H76.9946ZM105.875 450.789C104.987 451.011 104.19 451.233 103.484 451.455C102.778 451.677 101.98 451.96 101.092 452.303L101.001 452.242V449.366L99.4878 450.85C99.0236 451.334 98.4787 451.707 97.853 451.97C97.2274 452.212 96.5916 452.333 95.9458 452.333C94.6743 452.333 93.6551 451.929 92.8882 451.122C92.1414 450.315 91.7681 449.225 91.7681 447.853V439.194C91.7681 438.387 91.6167 437.832 91.314 437.529C91.0314 437.227 90.4663 437.045 89.6187 436.984V436.379H94.644V447.731C94.644 448.458 94.8862 449.084 95.3706 449.608C95.855 450.113 96.4403 450.365 97.1265 450.365C97.6512 450.365 98.1759 450.264 98.7007 450.062C99.2456 449.84 99.7502 449.518 100.214 449.094C100.436 448.932 100.598 448.72 100.699 448.458C100.8 448.175 100.85 447.802 100.85 447.338V439.164C100.85 438.74 100.81 438.397 100.729 438.135C100.668 437.852 100.537 437.63 100.335 437.469C100.154 437.307 99.8914 437.196 99.5483 437.136C99.2052 437.055 98.7713 437.005 98.2466 436.984V436.379H103.726V448.307C103.726 449.114 103.857 449.649 104.12 449.911C104.382 450.153 104.907 450.274 105.694 450.274H105.875V450.789ZM116.925 441.162C116.542 439.608 116.068 438.508 115.502 437.862C114.937 437.216 114.16 436.894 113.171 436.894C112.364 436.894 111.718 437.116 111.234 437.56C110.75 437.983 110.507 438.549 110.507 439.255C110.507 440.244 111.002 441.031 111.991 441.616L115.714 443.826C116.764 444.452 117.511 445.077 117.955 445.703C118.399 446.309 118.621 447.045 118.621 447.913C118.621 448.519 118.489 449.094 118.227 449.639C117.965 450.184 117.611 450.658 117.167 451.062C116.744 451.445 116.239 451.758 115.654 452C115.069 452.222 114.443 452.333 113.777 452.333C113.414 452.333 113.02 452.303 112.596 452.242C112.172 452.202 111.708 452.121 111.204 452C110.8 451.899 110.487 451.828 110.265 451.788C110.043 451.748 109.831 451.728 109.629 451.728C109.428 451.728 109.276 451.758 109.175 451.818C109.074 451.879 108.963 451.99 108.842 452.151H108.388V446.763H108.933C109.135 447.651 109.367 448.397 109.629 449.003C109.892 449.608 110.194 450.103 110.538 450.486C110.881 450.87 111.284 451.152 111.749 451.334C112.213 451.495 112.737 451.576 113.323 451.576C114.231 451.576 114.937 451.354 115.442 450.91C115.967 450.466 116.229 449.861 116.229 449.094C116.229 448.064 115.624 447.207 114.413 446.521L112.415 445.37C111.668 444.946 111.032 444.543 110.507 444.159C110.003 443.776 109.589 443.392 109.266 443.009C108.943 442.605 108.711 442.191 108.57 441.768C108.429 441.344 108.358 440.89 108.358 440.405C108.358 439.78 108.469 439.204 108.691 438.68C108.933 438.155 109.256 437.701 109.66 437.317C110.083 436.934 110.588 436.641 111.173 436.439C111.759 436.238 112.404 436.137 113.111 436.137C113.918 436.137 114.695 436.278 115.442 436.561C115.866 436.742 116.189 436.833 116.411 436.833C116.491 436.833 116.552 436.813 116.592 436.772C116.633 436.732 116.734 436.641 116.895 436.5L116.925 436.439H117.349L117.47 441.162H116.925ZM134.272 446.914C133.989 447.459 133.727 447.933 133.485 448.337C133.263 448.72 133.041 449.074 132.819 449.396C132.617 449.699 132.405 449.972 132.183 450.214C131.961 450.456 131.719 450.678 131.457 450.88C130.246 451.849 128.903 452.333 127.43 452.333C126.482 452.333 125.604 452.151 124.796 451.788C123.989 451.405 123.293 450.87 122.708 450.184C122.142 449.497 121.698 448.69 121.375 447.762C121.053 446.833 120.891 445.804 120.891 444.674C120.891 443.241 121.133 441.929 121.618 440.738C122.122 439.527 122.839 438.538 123.767 437.771C124.473 437.186 125.22 436.752 126.007 436.47C126.815 436.167 127.632 436.016 128.459 436.016C129.186 436.016 129.872 436.117 130.518 436.318C131.164 436.5 131.729 436.752 132.213 437.075C132.698 437.398 133.081 437.782 133.364 438.226C133.646 438.649 133.788 439.104 133.788 439.588C133.788 439.992 133.626 440.345 133.303 440.647C133 440.95 132.627 441.102 132.183 441.102C131.779 441.102 131.436 440.95 131.154 440.647C130.871 440.345 130.659 439.941 130.518 439.437L130.306 438.68C130.145 438.034 129.913 437.6 129.61 437.378C129.327 437.156 128.873 437.045 128.248 437.045C127.541 437.045 126.895 437.196 126.31 437.499C125.745 437.782 125.261 438.195 124.857 438.74C124.453 439.285 124.13 439.931 123.888 440.678C123.666 441.424 123.555 442.252 123.555 443.16C123.555 444.129 123.686 445.027 123.949 445.854C124.211 446.682 124.574 447.388 125.039 447.974C125.503 448.559 126.058 449.023 126.704 449.366C127.37 449.689 128.096 449.851 128.883 449.851C129.872 449.851 130.73 449.618 131.457 449.154C132.183 448.67 132.96 447.822 133.788 446.611L134.272 446.914ZM148.107 448.367C148.107 449.134 148.178 449.669 148.319 449.972C148.46 450.254 148.733 450.396 149.136 450.396C149.6 450.396 150.105 450.184 150.65 449.76V450.638C150.065 451.284 149.55 451.728 149.106 451.97C148.662 452.212 148.147 452.333 147.562 452.333C146.856 452.333 146.331 452.141 145.988 451.758C145.665 451.354 145.463 450.688 145.382 449.76C144.333 450.668 143.415 451.324 142.627 451.728C141.84 452.131 141.073 452.333 140.327 452.333C139.237 452.333 138.349 451.99 137.663 451.304C136.997 450.618 136.664 449.729 136.664 448.64C136.664 448.095 136.764 447.55 136.966 447.005C137.188 446.44 137.501 445.986 137.905 445.643C138.268 445.32 138.601 445.047 138.904 444.825C139.227 444.583 139.64 444.341 140.145 444.099C140.65 443.836 141.306 443.544 142.113 443.221C142.92 442.898 143.99 442.464 145.322 441.919V439.709C145.322 438.76 145.09 438.044 144.625 437.56C144.181 437.075 143.536 436.833 142.688 436.833C141.982 436.833 141.386 437.005 140.902 437.348C140.438 437.671 140.206 438.064 140.206 438.528C140.206 438.71 140.226 438.942 140.266 439.225C140.327 439.507 140.357 439.739 140.357 439.921C140.357 440.325 140.195 440.668 139.873 440.95C139.57 441.233 139.217 441.374 138.813 441.374C138.409 441.374 138.056 441.233 137.753 440.95C137.471 440.647 137.33 440.294 137.33 439.891C137.33 439.447 137.451 438.993 137.693 438.528C137.955 438.064 138.308 437.65 138.752 437.287C139.217 436.883 139.832 436.571 140.599 436.349C141.386 436.127 142.234 436.016 143.142 436.016C144.192 436.016 145.069 436.197 145.776 436.561C146.502 436.904 147.057 437.388 147.441 438.014C147.683 438.417 147.855 438.892 147.956 439.437C148.056 439.961 148.107 440.678 148.107 441.586V448.367ZM145.322 442.767C144.272 443.15 143.374 443.523 142.627 443.887C141.901 444.23 141.306 444.593 140.841 444.977C140.397 445.34 140.074 445.733 139.873 446.157C139.671 446.581 139.57 447.045 139.57 447.55V447.701C139.57 448.064 139.63 448.418 139.751 448.761C139.873 449.084 140.034 449.366 140.236 449.608C140.458 449.851 140.71 450.042 140.993 450.184C141.275 450.325 141.568 450.396 141.871 450.396C142.234 450.396 142.638 450.325 143.082 450.184C143.546 450.022 143.98 449.83 144.383 449.608C144.787 449.386 145.039 449.154 145.14 448.912C145.261 448.67 145.322 448.286 145.322 447.762V442.767ZM153.284 456.238C155.181 454.926 156.129 453.695 156.129 452.545C156.129 452.404 156.079 452.293 155.978 452.212C155.897 452.131 155.796 452.091 155.675 452.091C155.635 452.091 155.605 452.091 155.584 452.091C155.564 452.091 155.504 452.111 155.403 452.151C155.302 452.172 155.191 452.192 155.07 452.212C154.949 452.232 154.828 452.242 154.707 452.242C154.061 452.242 153.556 452.081 153.193 451.758C152.85 451.435 152.678 451.011 152.678 450.486C152.678 449.901 152.86 449.427 153.223 449.063C153.607 448.68 154.101 448.488 154.707 448.488C155.494 448.488 156.15 448.781 156.674 449.366C157.199 449.951 157.461 450.678 157.461 451.546C157.461 452.595 157.108 453.594 156.402 454.543C155.695 455.512 154.757 456.289 153.586 456.874L153.284 456.238ZM183.103 446.581C182.376 448.478 181.388 449.911 180.136 450.88C178.905 451.849 177.452 452.333 175.777 452.333C174.788 452.333 173.89 452.151 173.083 451.788C172.295 451.425 171.619 450.91 171.054 450.244C170.489 449.578 170.055 448.771 169.752 447.822C169.45 446.874 169.298 445.804 169.298 444.613C169.298 443.342 169.47 442.181 169.813 441.132C170.176 440.082 170.671 439.184 171.296 438.438C171.942 437.671 172.709 437.075 173.597 436.651C174.485 436.228 175.464 436.016 176.534 436.016C177.442 436.016 178.269 436.187 179.016 436.53C179.783 436.873 180.429 437.358 180.954 437.983C181.176 438.266 181.357 438.549 181.499 438.831C181.66 439.114 181.791 439.426 181.892 439.77C182.013 440.113 182.114 440.496 182.195 440.92C182.276 441.344 182.356 441.828 182.437 442.373H171.811C171.851 443.483 171.942 444.401 172.083 445.128C172.245 445.834 172.497 446.521 172.84 447.187C173.829 449.043 175.282 449.972 177.2 449.972C178.31 449.972 179.268 449.699 180.076 449.154C180.903 448.609 181.731 447.681 182.558 446.369L183.103 446.581ZM178.925 441.223C178.703 439.729 178.34 438.7 177.835 438.135C177.351 437.549 176.584 437.257 175.535 437.257C174.465 437.257 173.627 437.57 173.022 438.195C172.437 438.821 172.053 439.83 171.872 441.223H178.925ZM184.435 429.9C185.041 429.759 185.575 429.638 186.04 429.537C186.524 429.416 186.978 429.295 187.402 429.174C187.846 429.053 188.27 428.932 188.673 428.811C189.077 428.689 189.501 428.548 189.945 428.387L190.096 428.478V449.094C190.096 449.578 190.126 449.972 190.187 450.274C190.248 450.557 190.369 450.789 190.55 450.971C190.732 451.132 190.984 451.253 191.307 451.334C191.65 451.415 192.094 451.475 192.639 451.516V452H184.526V451.516C185.071 451.455 185.515 451.384 185.858 451.304C186.201 451.203 186.473 451.062 186.675 450.88C186.877 450.678 187.008 450.426 187.069 450.123C187.15 449.82 187.19 449.437 187.19 448.973V432.504C187.19 431.697 187.079 431.152 186.857 430.869C186.655 430.566 186.282 430.415 185.737 430.415C185.575 430.415 185.394 430.425 185.192 430.445C185.01 430.445 184.829 430.455 184.647 430.476H184.435V429.9ZM199.602 436.197V448.488C199.602 449.114 199.622 449.618 199.663 450.002C199.723 450.365 199.844 450.658 200.026 450.88C200.208 451.082 200.46 451.223 200.783 451.304C201.126 451.384 201.59 451.455 202.175 451.516V452H193.971V451.516C194.577 451.475 195.051 451.415 195.394 451.334C195.757 451.233 196.03 451.082 196.211 450.88C196.413 450.658 196.544 450.365 196.605 450.002C196.666 449.618 196.696 449.114 196.696 448.488V440.466C196.696 439.699 196.605 439.164 196.423 438.861C196.262 438.538 195.979 438.377 195.576 438.377C195.414 438.377 195.222 438.387 195 438.407C194.799 438.427 194.587 438.458 194.365 438.498L194.123 438.528V438.014L199.451 436.106L199.602 436.197ZM197.876 428.387C198.361 428.387 198.775 428.568 199.118 428.932C199.461 429.275 199.632 429.688 199.632 430.173C199.632 430.677 199.461 431.101 199.118 431.444C198.795 431.767 198.371 431.929 197.846 431.929C197.342 431.929 196.928 431.767 196.605 431.444C196.282 431.101 196.121 430.677 196.121 430.173C196.121 429.688 196.292 429.275 196.635 428.932C196.978 428.568 197.392 428.387 197.876 428.387ZM216.434 438.559C216.656 439.144 216.807 439.659 216.888 440.103C216.989 440.526 217.04 441.001 217.04 441.525C217.04 442.252 216.898 442.938 216.616 443.584C216.333 444.23 215.95 444.805 215.465 445.31C214.981 445.794 214.416 446.188 213.77 446.49C213.124 446.773 212.428 446.914 211.681 446.914C211.58 446.914 211.409 446.904 211.167 446.884C210.944 446.864 210.682 446.833 210.379 446.793L209.713 446.702C209.471 446.763 209.229 446.884 208.987 447.065C208.745 447.227 208.523 447.419 208.321 447.641C208.119 447.842 207.947 448.054 207.806 448.276C207.685 448.498 207.625 448.7 207.625 448.882C207.625 449.144 207.836 449.356 208.26 449.518C208.704 449.659 209.401 449.75 210.349 449.79L214.799 450.002C216.071 450.062 217.08 450.426 217.827 451.092C218.573 451.738 218.947 452.595 218.947 453.665C218.947 454.674 218.644 455.542 218.039 456.269C217.433 457.015 216.676 457.631 215.768 458.115C214.86 458.6 213.881 458.953 212.832 459.175C211.802 459.417 210.854 459.538 209.986 459.538C209.158 459.538 208.381 459.447 207.655 459.266C206.928 459.104 206.292 458.872 205.748 458.569C205.203 458.267 204.769 457.913 204.446 457.51C204.143 457.106 203.992 456.672 203.992 456.208C203.992 455.562 204.244 454.916 204.749 454.271C205.273 453.625 206.161 452.858 207.413 451.97C206.686 451.627 206.192 451.334 205.929 451.092C205.687 450.829 205.566 450.507 205.566 450.123C205.566 449.78 205.687 449.437 205.929 449.094C206.192 448.73 206.605 448.286 207.17 447.762L208.654 446.369C207.483 445.804 206.646 445.168 206.141 444.462C205.657 443.735 205.415 442.827 205.415 441.737C205.415 440.95 205.566 440.214 205.869 439.527C206.171 438.821 206.575 438.215 207.08 437.711C207.604 437.186 208.22 436.772 208.926 436.47C209.633 436.167 210.379 436.016 211.167 436.016C212.095 436.016 213.023 436.187 213.952 436.53L214.739 436.833C215.082 436.954 215.395 437.065 215.677 437.166C215.98 437.247 216.303 437.287 216.646 437.287H219.31V438.559H216.434ZM208.139 452.091C207.796 452.494 207.514 452.838 207.292 453.12C207.069 453.403 206.898 453.655 206.777 453.877C206.656 454.099 206.565 454.301 206.504 454.482C206.464 454.664 206.444 454.856 206.444 455.058C206.444 455.825 206.888 456.43 207.776 456.874C208.684 457.338 209.905 457.57 211.439 457.57C212.428 457.57 213.326 457.49 214.133 457.328C214.941 457.167 215.627 456.935 216.192 456.632C216.777 456.349 217.221 455.996 217.524 455.572C217.847 455.169 218.008 454.715 218.008 454.21C218.008 453.584 217.685 453.15 217.04 452.908C216.394 452.666 215.294 452.545 213.74 452.545C213.316 452.545 212.832 452.525 212.287 452.484C211.762 452.464 211.237 452.434 210.712 452.394C210.208 452.353 209.723 452.303 209.259 452.242C208.815 452.202 208.442 452.151 208.139 452.091ZM208.291 440.436C208.291 441.263 208.371 442.03 208.533 442.736C208.714 443.423 208.957 444.018 209.259 444.522C209.582 445.007 209.956 445.39 210.379 445.673C210.823 445.935 211.318 446.066 211.863 446.066C212.63 446.066 213.245 445.784 213.709 445.219C214.174 444.633 214.406 443.856 214.406 442.888C214.406 442.181 214.315 441.465 214.133 440.738C213.972 440.012 213.73 439.346 213.407 438.74C213.124 438.195 212.761 437.771 212.317 437.469C211.873 437.146 211.389 436.984 210.864 436.984C210.056 436.984 209.421 437.287 208.957 437.893C208.513 438.498 208.291 439.305 208.291 440.314V440.436ZM234.992 446.581C234.265 448.478 233.276 449.911 232.025 450.88C230.794 451.849 229.341 452.333 227.666 452.333C226.677 452.333 225.778 452.151 224.971 451.788C224.184 451.425 223.508 450.91 222.943 450.244C222.378 449.578 221.944 448.771 221.641 447.822C221.338 446.874 221.187 445.804 221.187 444.613C221.187 443.342 221.359 442.181 221.702 441.132C222.065 440.082 222.559 439.184 223.185 438.438C223.831 437.671 224.598 437.075 225.486 436.651C226.374 436.228 227.353 436.016 228.422 436.016C229.331 436.016 230.158 436.187 230.905 436.53C231.672 436.873 232.318 437.358 232.842 437.983C233.064 438.266 233.246 438.549 233.387 438.831C233.549 439.114 233.68 439.426 233.781 439.77C233.902 440.113 234.003 440.496 234.083 440.92C234.164 441.344 234.245 441.828 234.326 442.373H223.7C223.74 443.483 223.831 444.401 223.972 445.128C224.134 445.834 224.386 446.521 224.729 447.187C225.718 449.043 227.171 449.972 229.088 449.972C230.198 449.972 231.157 449.699 231.964 449.154C232.792 448.609 233.619 447.681 234.447 446.369L234.992 446.581ZM230.814 441.223C230.592 439.729 230.229 438.7 229.724 438.135C229.24 437.549 228.473 437.257 227.423 437.257C226.354 437.257 225.516 437.57 224.911 438.195C224.325 438.821 223.942 439.83 223.76 441.223H230.814ZM238.231 456.238C240.128 454.926 241.077 453.695 241.077 452.545C241.077 452.404 241.026 452.293 240.925 452.212C240.845 452.131 240.744 452.091 240.623 452.091C240.582 452.091 240.552 452.091 240.532 452.091C240.512 452.091 240.451 452.111 240.35 452.151C240.249 452.172 240.138 452.192 240.017 452.212C239.896 452.232 239.775 452.242 239.654 452.242C239.008 452.242 238.503 452.081 238.14 451.758C237.797 451.435 237.625 451.011 237.625 450.486C237.625 449.901 237.807 449.427 238.17 449.063C238.554 448.68 239.048 448.488 239.654 448.488C240.441 448.488 241.097 448.781 241.622 449.366C242.146 449.951 242.409 450.678 242.409 451.546C242.409 452.595 242.056 453.594 241.349 454.543C240.643 455.512 239.704 456.289 238.534 456.874L238.231 456.238Z"
            fill="#F4F9FF" />
        <path
            d="M254.034 429.9C254.639 429.759 255.174 429.638 255.638 429.537C256.123 429.416 256.577 429.295 257 429.174C257.444 429.053 257.868 428.932 258.272 428.811C258.676 428.689 259.099 428.548 259.543 428.387L259.695 428.478V449.094C259.695 449.578 259.725 449.972 259.786 450.274C259.846 450.557 259.967 450.789 260.149 450.971C260.331 451.132 260.583 451.253 260.906 451.334C261.249 451.415 261.693 451.475 262.238 451.516V452H254.125V451.516C254.669 451.455 255.113 451.384 255.457 451.304C255.8 451.203 256.072 451.062 256.274 450.88C256.476 450.678 256.607 450.426 256.667 450.123C256.748 449.82 256.789 449.437 256.789 448.973V432.504C256.789 431.697 256.678 431.152 256.456 430.869C256.254 430.566 255.88 430.415 255.335 430.415C255.174 430.415 254.992 430.425 254.791 430.445C254.609 430.445 254.427 430.455 254.246 430.476H254.034V429.9ZM277.677 446.581C276.951 448.478 275.962 449.911 274.71 450.88C273.479 451.849 272.026 452.333 270.351 452.333C269.362 452.333 268.464 452.151 267.657 451.788C266.87 451.425 266.194 450.91 265.628 450.244C265.063 449.578 264.629 448.771 264.327 447.822C264.024 446.874 263.873 445.804 263.873 444.613C263.873 443.342 264.044 442.181 264.387 441.132C264.75 440.082 265.245 439.184 265.871 438.438C266.516 437.671 267.283 437.075 268.171 436.651C269.059 436.228 270.038 436.016 271.108 436.016C272.016 436.016 272.844 436.187 273.59 436.53C274.357 436.873 275.003 437.358 275.528 437.983C275.75 438.266 275.931 438.549 276.073 438.831C276.234 439.114 276.365 439.426 276.466 439.77C276.587 440.113 276.688 440.496 276.769 440.92C276.85 441.344 276.931 441.828 277.011 442.373H266.385C266.426 443.483 266.516 444.401 266.658 445.128C266.819 445.834 267.071 446.521 267.415 447.187C268.403 449.043 269.857 449.972 271.774 449.972C272.884 449.972 273.843 449.699 274.65 449.154C275.477 448.609 276.305 447.681 277.132 446.369L277.677 446.581ZM273.5 441.223C273.278 439.729 272.914 438.7 272.41 438.135C271.925 437.549 271.158 437.257 270.109 437.257C269.039 437.257 268.202 437.57 267.596 438.195C267.011 438.821 266.627 439.83 266.446 441.223H273.5ZM293.026 446.581C292.299 448.478 291.31 449.911 290.059 450.88C288.828 451.849 287.375 452.333 285.7 452.333C284.711 452.333 283.813 452.151 283.005 451.788C282.218 451.425 281.542 450.91 280.977 450.244C280.412 449.578 279.978 448.771 279.675 447.822C279.373 446.874 279.221 445.804 279.221 444.613C279.221 443.342 279.393 442.181 279.736 441.132C280.099 440.082 280.594 439.184 281.219 438.438C281.865 437.671 282.632 437.075 283.52 436.651C284.408 436.228 285.387 436.016 286.457 436.016C287.365 436.016 288.192 436.187 288.939 436.53C289.706 436.873 290.352 437.358 290.876 437.983C291.098 438.266 291.28 438.549 291.421 438.831C291.583 439.114 291.714 439.426 291.815 439.77C291.936 440.113 292.037 440.496 292.118 440.92C292.198 441.344 292.279 441.828 292.36 442.373H281.734C281.774 443.483 281.865 444.401 282.006 445.128C282.168 445.834 282.42 446.521 282.763 447.187C283.752 449.043 285.205 449.972 287.123 449.972C288.233 449.972 289.191 449.699 289.999 449.154C290.826 448.609 291.653 447.681 292.481 446.369L293.026 446.581ZM288.848 441.223C288.626 439.729 288.263 438.7 287.758 438.135C287.274 437.549 286.507 437.257 285.458 437.257C284.388 437.257 283.55 437.57 282.945 438.195C282.36 438.821 281.976 439.83 281.794 441.223H288.848Z"
            fill="#6BA8F0" />
    </g>
    <defs>
        <clipPath id="clip0_19_2">
            <rect width="360" height="800" fill="white" />
        </clipPath>
    </defs>
</svg>