<svg width="360" height="128" viewBox="0 0 360 128" fill="none" xmlns="http://www.w3.org/2000/svg">
    <path
        d="M72.123 62.6475L46.9717 31.3701V53.6328C46.9717 55.0938 47.0381 56.2891 47.1709 57.2188C47.3369 58.1152 47.6191 58.8291 48.0176 59.3604C48.416 59.8916 48.9639 60.2734 49.6611 60.5059C50.3584 60.7383 51.2549 60.8877 52.3506 60.9541V62H39.0029V60.9541C40.165 60.8545 41.0947 60.7051 41.792 60.5059C42.5225 60.2734 43.0703 59.8916 43.4355 59.3604C43.834 58.8291 44.0996 58.1152 44.2324 57.2188C44.3652 56.2891 44.4316 55.0938 44.4316 53.6328V28.6309C43.8672 27.9668 43.3857 27.4355 42.9873 27.0371C42.5889 26.6055 42.1904 26.29 41.792 26.0908C41.3936 25.8584 40.9785 25.709 40.5469 25.6426C40.1152 25.543 39.6006 25.4932 39.0029 25.4932V24.3477H48.7148L70.5791 51.8896V32.7148C70.5791 29.2617 70.0312 27.1367 68.9355 26.3398C68.5039 26.0742 68.0225 25.8916 67.4912 25.792C66.9932 25.6592 66.2129 25.5596 65.1504 25.4932V24.3477H78.4482V25.4932C77.3857 25.5596 76.5889 25.6758 76.0576 25.8418C75.5596 26.0078 75.1279 26.2236 74.7627 26.4893C73.6338 27.2197 73.0693 29.2949 73.0693 32.7148V62.6475H72.123ZM103.45 53.085C102.255 56.2061 100.628 58.5635 98.5693 60.1572C96.5439 61.751 94.1533 62.5479 91.3975 62.5479C89.7705 62.5479 88.293 62.249 86.9648 61.6514C85.6699 61.0537 84.5576 60.207 83.6279 59.1113C82.6982 58.0156 81.9844 56.6875 81.4863 55.127C80.9883 53.5664 80.7393 51.8066 80.7393 49.8477C80.7393 47.7559 81.0215 45.8467 81.5859 44.1201C82.1836 42.3936 82.9971 40.916 84.0264 39.6875C85.0889 38.4258 86.3506 37.4463 87.8115 36.749C89.2725 36.0518 90.8828 35.7031 92.6426 35.7031C94.1367 35.7031 95.498 35.9854 96.7266 36.5498C97.9883 37.1143 99.0508 37.9111 99.9141 38.9404C100.279 39.4053 100.578 39.8701 100.811 40.335C101.076 40.7998 101.292 41.3145 101.458 41.8789C101.657 42.4434 101.823 43.0742 101.956 43.7715C102.089 44.4688 102.222 45.2656 102.354 46.1621H84.873C84.9395 47.9883 85.0889 49.499 85.3213 50.6943C85.5869 51.8564 86.002 52.9854 86.5664 54.0811C88.1934 57.1357 90.584 58.6631 93.7383 58.6631C95.5645 58.6631 97.1416 58.2148 98.4697 57.3184C99.8311 56.4219 101.192 54.8945 102.554 52.7363L103.45 53.085ZM96.5771 44.2695C96.2119 41.8125 95.6143 40.1191 94.7842 39.1895C93.9873 38.2266 92.7256 37.7451 90.999 37.7451C89.2393 37.7451 87.8613 38.2598 86.8652 39.2891C85.9023 40.3184 85.2715 41.9785 84.9727 44.2695H96.5771ZM144.091 36.4004V37.2969C143.792 37.3965 143.543 37.4961 143.344 37.5957C143.178 37.6953 143.012 37.8447 142.846 38.0439C142.68 38.2432 142.514 38.5254 142.348 38.8906C142.182 39.2559 141.966 39.7373 141.7 40.335L133.881 60.0078C133.648 60.5723 133.449 61.0371 133.283 61.4023C133.15 61.7676 133.018 62.0498 132.885 62.249C132.785 62.4482 132.686 62.5811 132.586 62.6475C132.486 62.7471 132.387 62.7969 132.287 62.7969C132.088 62.7969 131.922 62.6475 131.789 62.3486C131.656 62.083 131.357 61.4189 130.893 60.3564L125.763 46.959L119.338 60.6055C118.674 62.0664 118.209 62.7969 117.943 62.7969C117.611 62.7969 117.113 61.9668 116.449 60.3066L108.779 40.833C108.48 40.1025 108.215 39.5215 107.982 39.0898C107.75 38.625 107.518 38.2764 107.285 38.0439C107.086 37.7783 106.87 37.5957 106.638 37.4961C106.405 37.3965 106.123 37.3301 105.791 37.2969V36.4004H116.001V37.2969C115.005 37.4297 114.308 37.6289 113.909 37.8945C113.544 38.127 113.361 38.542 113.361 39.1396C113.361 39.6709 113.494 40.2354 113.76 40.833L119.338 55.7246L124.567 44.3691L123.422 41.1816C123.123 40.418 122.841 39.8037 122.575 39.3389C122.343 38.8408 122.077 38.459 121.778 38.1934C121.513 37.9277 121.197 37.7285 120.832 37.5957C120.467 37.4629 120.019 37.3633 119.487 37.2969V36.4004H130.992V37.2969C129.697 37.4629 128.834 37.6953 128.402 37.9941C127.971 38.2598 127.755 38.6914 127.755 39.2891C127.755 39.4883 127.755 39.6543 127.755 39.7871C127.788 39.8867 127.821 40.0527 127.854 40.2852C127.921 40.4844 128.021 40.7666 128.153 41.1318C128.286 41.4971 128.469 42.0117 128.701 42.6758L133.482 55.4258L138.612 42.7754C138.944 42.0117 139.177 41.3145 139.31 40.6836C139.476 40.0195 139.559 39.4551 139.559 38.9902C139.559 38.5254 139.376 38.1768 139.011 37.9443C138.646 37.6787 137.981 37.4629 137.019 37.2969V36.4004H144.091ZM162.618 44.1699C161.987 41.6133 161.207 39.8037 160.277 38.7412C159.348 37.6787 158.069 37.1475 156.442 37.1475C155.114 37.1475 154.052 37.5127 153.255 38.2432C152.458 38.9404 152.06 39.8701 152.06 41.0322C152.06 42.6592 152.873 43.9541 154.5 44.917L160.626 48.5527C162.353 49.582 163.581 50.6113 164.312 51.6406C165.042 52.6367 165.407 53.8486 165.407 55.2764C165.407 56.2725 165.191 57.2188 164.76 58.1152C164.328 59.0117 163.747 59.792 163.017 60.4561C162.319 61.0869 161.489 61.6016 160.526 62C159.563 62.3652 158.534 62.5479 157.438 62.5479C156.841 62.5479 156.193 62.498 155.496 62.3984C154.799 62.332 154.035 62.1992 153.205 62C152.541 61.834 152.026 61.7178 151.661 61.6514C151.296 61.585 150.947 61.5518 150.615 61.5518C150.283 61.5518 150.034 61.6016 149.868 61.7012C149.702 61.8008 149.52 61.9834 149.32 62.249H148.573V53.3838H149.47C149.802 54.8447 150.184 56.0732 150.615 57.0693C151.047 58.0654 151.545 58.8789 152.109 59.5098C152.674 60.1406 153.338 60.6055 154.102 60.9043C154.865 61.1699 155.729 61.3027 156.691 61.3027C158.186 61.3027 159.348 60.9375 160.178 60.207C161.041 59.4766 161.473 58.4805 161.473 57.2188C161.473 55.5254 160.477 54.1143 158.484 52.9854L155.197 51.0928C153.969 50.3955 152.923 49.7314 152.06 49.1006C151.229 48.4697 150.549 47.8389 150.018 47.208C149.486 46.5439 149.104 45.8633 148.872 45.166C148.64 44.4688 148.523 43.7217 148.523 42.9248C148.523 41.8955 148.706 40.9492 149.071 40.0859C149.47 39.2227 150.001 38.4756 150.665 37.8447C151.362 37.2139 152.192 36.7324 153.155 36.4004C154.118 36.0684 155.181 35.9023 156.343 35.9023C157.671 35.9023 158.949 36.1348 160.178 36.5996C160.875 36.8984 161.406 37.0479 161.771 37.0479C161.904 37.0479 162.004 37.0146 162.07 36.9482C162.137 36.8818 162.303 36.7324 162.568 36.5L162.618 36.4004H163.315L163.515 44.1699H162.618Z"
        fill="#6BA8F0" />
    <path
        d="M199.573 24.3477C204.521 24.3477 208.239 25.1611 210.729 26.7881C213.22 28.415 214.465 30.8223 214.465 34.0098C214.465 35.1719 214.266 36.2676 213.867 37.2969C213.469 38.293 212.904 39.1064 212.174 39.7373C211.809 40.0361 211.46 40.3018 211.128 40.5342C210.796 40.7666 210.414 40.9824 209.982 41.1816C209.584 41.3477 209.103 41.5137 208.538 41.6797C208.007 41.8457 207.376 42.0283 206.646 42.2275C207.575 42.4268 208.372 42.626 209.036 42.8252C209.733 43.0244 210.348 43.2568 210.879 43.5225C211.41 43.7549 211.892 44.0205 212.323 44.3193C212.755 44.6182 213.187 44.9668 213.618 45.3652C215.478 47.0254 216.407 49.167 216.407 51.79C216.407 53.3838 216.092 54.8115 215.461 56.0732C214.83 57.335 213.917 58.4141 212.722 59.3105C211.526 60.1738 210.082 60.8379 208.389 61.3027C206.695 61.7676 204.786 62 202.661 62H183.636V60.9541C184.798 60.9209 185.728 60.8379 186.425 60.7051C187.155 60.5391 187.72 60.2734 188.118 59.9082C188.517 59.543 188.782 59.0449 188.915 58.4141C189.048 57.75 189.114 56.9033 189.114 55.874V30.5732C189.114 29.5107 189.048 28.6641 188.915 28.0332C188.815 27.4023 188.566 26.9043 188.168 26.5391C187.77 26.1738 187.205 25.9248 186.475 25.792C185.777 25.6592 184.831 25.5596 183.636 25.4932V24.3477H199.573ZM194.842 57.5674C194.842 58.4971 195.091 59.1279 195.589 59.46C196.087 59.7588 197 59.9082 198.328 59.9082C199.324 59.9082 200.204 59.8916 200.968 59.8584C201.765 59.792 202.479 59.709 203.109 59.6094C203.773 59.4766 204.371 59.3105 204.902 59.1113C205.434 58.9121 205.932 58.6797 206.396 58.4141C208.721 57.0859 209.883 54.8945 209.883 51.8398C209.883 48.2539 208.239 45.8301 204.952 44.5684C204.421 44.3691 203.84 44.2031 203.209 44.0703C202.611 43.9375 201.914 43.8379 201.117 43.7715C200.354 43.6719 199.457 43.6055 198.428 43.5723C197.398 43.5059 196.203 43.4727 194.842 43.4727V57.5674ZM200.32 41.1816C203.01 41.1816 205.068 40.6006 206.496 39.4385C207.957 38.2432 208.688 36.5166 208.688 34.2588C208.688 31.6689 207.841 29.7266 206.147 28.4316C204.454 27.1367 201.947 26.4893 198.627 26.4893H196.137C195.273 26.4893 194.842 27.0537 194.842 28.1826V41.1816H200.32ZM234.785 35.8525C236.611 35.8525 238.288 36.168 239.815 36.7988C241.343 37.4297 242.654 38.3262 243.75 39.4883C244.879 40.6172 245.759 41.9619 246.39 43.5225C247.021 45.083 247.336 46.8096 247.336 48.7021C247.336 50.6943 247.004 52.5371 246.34 54.2305C245.709 55.8906 244.829 57.3516 243.7 58.6133C242.571 59.8418 241.227 60.8047 239.666 61.502C238.139 62.1992 236.479 62.5479 234.686 62.5479C232.893 62.5479 231.232 62.2158 229.705 61.5518C228.178 60.8877 226.866 59.958 225.771 58.7627C224.675 57.5674 223.812 56.1562 223.181 54.5293C222.55 52.9023 222.234 51.126 222.234 49.2002C222.234 47.2412 222.533 45.4482 223.131 43.8213C223.762 42.1611 224.625 40.75 225.721 39.5879C226.816 38.3926 228.128 37.4795 229.655 36.8486C231.216 36.1846 232.926 35.8525 234.785 35.8525ZM233.938 37.4463C231.946 37.4463 230.353 38.2598 229.157 39.8867C227.962 41.5137 227.364 43.6719 227.364 46.3613C227.364 48.3867 227.58 50.3623 228.012 52.2881C228.443 54.1807 229.058 55.874 229.854 57.3682C230.452 58.5303 231.249 59.4268 232.245 60.0576C233.241 60.6885 234.32 61.0039 235.482 61.0039C237.574 61.0039 239.201 60.0908 240.363 58.2646C241.559 56.4053 242.156 53.8652 242.156 50.6445C242.156 48.2207 241.808 45.9629 241.11 43.8711C240.413 41.7793 239.467 40.2021 238.271 39.1396C237.641 38.542 236.977 38.1104 236.279 37.8447C235.582 37.5791 234.802 37.4463 233.938 37.4463ZM269.947 56.0234C269.947 57.2852 270.063 58.165 270.296 58.6631C270.528 59.1279 270.977 59.3604 271.641 59.3604C272.404 59.3604 273.234 59.0117 274.131 58.3145V59.7588C273.168 60.8213 272.321 61.5518 271.591 61.9502C270.86 62.3486 270.014 62.5479 269.051 62.5479C267.889 62.5479 267.025 62.2324 266.461 61.6016C265.93 60.9375 265.598 59.8418 265.465 58.3145C263.738 59.8086 262.228 60.8877 260.933 61.5518C259.638 62.2158 258.376 62.5479 257.147 62.5479C255.354 62.5479 253.894 61.9834 252.765 60.8545C251.669 59.7256 251.121 58.2646 251.121 56.4717C251.121 55.5752 251.287 54.6787 251.619 53.7822C251.984 52.8525 252.499 52.1055 253.163 51.541C253.761 51.0098 254.309 50.5615 254.807 50.1963C255.338 49.7979 256.019 49.3994 256.849 49.001C257.679 48.5693 258.758 48.0879 260.086 47.5566C261.414 47.0254 263.174 46.3115 265.365 45.415V41.7793C265.365 40.2188 264.983 39.04 264.22 38.2432C263.489 37.4463 262.427 37.0479 261.032 37.0479C259.87 37.0479 258.891 37.3301 258.094 37.8945C257.33 38.4258 256.948 39.0732 256.948 39.8369C256.948 40.1357 256.981 40.5176 257.048 40.9824C257.147 41.4473 257.197 41.8291 257.197 42.1279C257.197 42.792 256.932 43.3564 256.4 43.8213C255.902 44.2861 255.321 44.5186 254.657 44.5186C253.993 44.5186 253.412 44.2861 252.914 43.8213C252.449 43.3232 252.217 42.7422 252.217 42.0781C252.217 41.3477 252.416 40.6006 252.814 39.8369C253.246 39.0732 253.827 38.3926 254.558 37.7949C255.321 37.1309 256.334 36.6162 257.596 36.251C258.891 35.8857 260.285 35.7031 261.779 35.7031C263.506 35.7031 264.95 36.002 266.112 36.5996C267.308 37.1641 268.221 37.9609 268.852 38.9902C269.25 39.6543 269.532 40.4346 269.698 41.3311C269.864 42.1943 269.947 43.373 269.947 44.8672V56.0234ZM265.365 46.8096C263.639 47.4404 262.161 48.0547 260.933 48.6523C259.737 49.2168 258.758 49.8145 257.994 50.4453C257.264 51.043 256.732 51.6904 256.4 52.3877C256.068 53.085 255.902 53.8486 255.902 54.6787V54.9277C255.902 55.5254 256.002 56.1064 256.201 56.6709C256.4 57.2021 256.666 57.667 256.998 58.0654C257.363 58.4639 257.778 58.7793 258.243 59.0117C258.708 59.2441 259.189 59.3604 259.688 59.3604C260.285 59.3604 260.949 59.2441 261.68 59.0117C262.443 58.7461 263.157 58.4307 263.821 58.0654C264.485 57.7002 264.9 57.3184 265.066 56.9199C265.266 56.5215 265.365 55.8906 265.365 55.0273V46.8096ZM274.679 38.9902C275.509 38.6914 276.272 38.4258 276.97 38.1934C277.667 37.9277 278.331 37.6787 278.962 37.4463C279.626 37.1807 280.273 36.9316 280.904 36.6992C281.568 36.4336 282.282 36.1514 283.046 35.8525L283.395 35.9521V41.1816C284.092 40.1523 284.723 39.3057 285.287 38.6416C285.852 37.9443 286.399 37.3965 286.931 36.998C287.462 36.5664 287.977 36.2676 288.475 36.1016C289.006 35.9355 289.57 35.8525 290.168 35.8525C291.131 35.8525 291.895 36.1348 292.459 36.6992C293.023 37.2305 293.306 37.9443 293.306 38.8408C293.306 39.6709 293.106 40.3184 292.708 40.7832C292.31 41.2148 291.778 41.4307 291.114 41.4307C290.749 41.4307 290.384 41.3643 290.019 41.2314C289.687 41.0654 289.288 40.75 288.823 40.2852C288.524 40.0195 288.242 39.8203 287.977 39.6875C287.711 39.5547 287.495 39.4883 287.329 39.4883C286.931 39.4883 286.499 39.6543 286.034 39.9863C285.603 40.2852 285.188 40.667 284.789 41.1318C284.391 41.5967 284.059 42.0947 283.793 42.626C283.527 43.1572 283.395 43.6553 283.395 44.1201V56.9199C283.395 57.7168 283.461 58.3809 283.594 58.9121C283.727 59.4434 283.976 59.875 284.341 60.207C284.706 60.5059 285.204 60.7383 285.835 60.9043C286.466 61.0703 287.263 61.1699 288.226 61.2031V62H274.529V61.2031C275.426 61.0371 276.14 60.8711 276.671 60.7051C277.235 60.5059 277.65 60.2734 277.916 60.0078C278.215 59.7422 278.397 59.3936 278.464 58.9619C278.563 58.4971 278.613 57.916 278.613 57.2188V43.0244C278.613 41.7627 278.464 40.8828 278.165 40.3848C277.866 39.8535 277.368 39.5879 276.671 39.5879C276.306 39.5879 275.974 39.6045 275.675 39.6377C275.409 39.6709 275.077 39.7373 274.679 39.8369V38.9902ZM312.58 62.3984V58.7129C311.617 60.1074 310.555 61.1035 309.393 61.7012C308.264 62.2656 306.902 62.5479 305.309 62.5479C303.715 62.5479 302.271 62.2656 300.976 61.7012C299.681 61.1035 298.568 60.2734 297.639 59.2109C296.742 58.1152 296.028 56.8203 295.497 55.3262C294.999 53.832 294.75 52.1719 294.75 50.3457C294.75 48.3203 295.065 46.4277 295.696 44.668C296.327 42.9082 297.174 41.3643 298.236 40.0361C299.299 38.708 300.544 37.6621 301.972 36.8984C303.433 36.1348 304.977 35.7529 306.604 35.7529C307.766 35.7529 308.778 35.9355 309.642 36.3008C310.505 36.6328 311.484 37.2637 312.58 38.1934V29.4277C312.58 28.2656 312.397 27.4854 312.032 27.0869C311.7 26.6885 311.003 26.4893 309.94 26.4893C309.708 26.4893 309.492 26.5059 309.293 26.5391C309.127 26.5391 308.928 26.5557 308.695 26.5889V25.5928C309.592 25.3604 310.405 25.1611 311.136 24.9951C311.866 24.7959 312.547 24.6133 313.178 24.4473C313.842 24.248 314.473 24.0488 315.07 23.8496C315.701 23.6504 316.365 23.418 317.062 23.1523L317.361 23.3018V55.5254C317.361 56.8535 317.511 57.7334 317.81 58.165C318.142 58.5635 318.822 58.7627 319.852 58.7627C320.018 58.7627 320.217 58.7627 320.449 58.7627C320.715 58.7295 320.964 58.7129 321.196 58.7129V59.6094L312.829 62.5479L312.58 62.3984ZM312.58 43.0244C312.58 42.2939 312.414 41.5967 312.082 40.9326C311.783 40.2354 311.368 39.6211 310.837 39.0898C310.306 38.5586 309.675 38.1436 308.944 37.8447C308.247 37.5127 307.517 37.3467 306.753 37.3467C305.69 37.3467 304.711 37.6123 303.814 38.1436C302.951 38.6416 302.204 39.3721 301.573 40.335C300.976 41.2646 300.511 42.3936 300.179 43.7217C299.847 45.0166 299.681 46.4609 299.681 48.0547C299.681 49.8145 299.863 51.4082 300.229 52.8359C300.594 54.2637 301.108 55.4756 301.772 56.4717C302.47 57.4678 303.3 58.248 304.263 58.8125C305.226 59.3438 306.305 59.6094 307.5 59.6094C309.293 59.6094 310.688 59.0117 311.684 57.8164C312.281 57.1523 312.58 56.6211 312.58 56.2227V43.0244Z"
        fill="#F4F9FF" />
    <path
        d="M76.5405 93.1133C79.5477 93.1133 81.8081 93.6077 83.3218 94.5967C84.8354 95.5856 85.5923 97.0488 85.5923 98.9863C85.5923 99.6927 85.4712 100.359 85.229 100.984C84.9868 101.59 84.6437 102.084 84.1997 102.468C83.9777 102.649 83.7658 102.811 83.564 102.952C83.3621 103.093 83.13 103.225 82.8677 103.346C82.6255 103.447 82.3328 103.548 81.9897 103.648C81.6668 103.749 81.2834 103.86 80.8394 103.981C81.4045 104.103 81.8888 104.224 82.2925 104.345C82.7163 104.466 83.0897 104.607 83.4126 104.769C83.7355 104.91 84.0282 105.071 84.2905 105.253C84.5529 105.435 84.8153 105.646 85.0776 105.889C86.2078 106.898 86.7729 108.2 86.7729 109.794C86.7729 110.763 86.5812 111.631 86.1978 112.397C85.8143 113.164 85.2593 113.82 84.5327 114.365C83.8062 114.89 82.9282 115.294 81.8989 115.576C80.8696 115.859 79.7091 116 78.4175 116H66.853V115.364C67.5594 115.344 68.1245 115.294 68.5483 115.213C68.9924 115.112 69.3354 114.951 69.5776 114.729C69.8198 114.507 69.9813 114.204 70.062 113.82C70.1427 113.417 70.1831 112.902 70.1831 112.276V96.8975C70.1831 96.2516 70.1427 95.737 70.062 95.3535C70.0015 94.9701 69.8501 94.6673 69.6079 94.4453C69.3657 94.2233 69.0226 94.0719 68.5786 93.9912C68.1548 93.9105 67.5796 93.8499 66.853 93.8096V93.1133H76.5405ZM73.6646 113.306C73.6646 113.871 73.8159 114.254 74.1187 114.456C74.4214 114.638 74.9764 114.729 75.7837 114.729C76.3892 114.729 76.924 114.718 77.3882 114.698C77.8726 114.658 78.3065 114.607 78.6899 114.547C79.0936 114.466 79.4569 114.365 79.7798 114.244C80.1027 114.123 80.4054 113.982 80.688 113.82C82.1007 113.013 82.8071 111.681 82.8071 109.824C82.8071 107.645 81.8081 106.171 79.8101 105.404C79.4871 105.283 79.134 105.182 78.7505 105.102C78.3872 105.021 77.9634 104.96 77.479 104.92C77.0148 104.859 76.4699 104.819 75.8442 104.799C75.2186 104.758 74.492 104.738 73.6646 104.738V113.306ZM76.9946 103.346C78.6294 103.346 79.8807 102.993 80.7485 102.286C81.6366 101.56 82.0806 100.51 82.0806 99.1377C82.0806 97.5635 81.5659 96.3828 80.5366 95.5957C79.5073 94.8086 77.9836 94.415 75.9653 94.415H74.4517C73.9269 94.415 73.6646 94.7581 73.6646 95.4443V103.346H76.9946ZM105.875 114.789C104.987 115.011 104.19 115.233 103.484 115.455C102.778 115.677 101.98 115.96 101.092 116.303L101.001 116.242V113.366L99.4878 114.85C99.0236 115.334 98.4787 115.707 97.853 115.97C97.2274 116.212 96.5916 116.333 95.9458 116.333C94.6743 116.333 93.6551 115.929 92.8882 115.122C92.1414 114.315 91.7681 113.225 91.7681 111.853V103.194C91.7681 102.387 91.6167 101.832 91.314 101.529C91.0314 101.227 90.4663 101.045 89.6187 100.984V100.379H94.644V111.731C94.644 112.458 94.8862 113.084 95.3706 113.608C95.855 114.113 96.4403 114.365 97.1265 114.365C97.6512 114.365 98.1759 114.264 98.7007 114.062C99.2456 113.84 99.7502 113.518 100.214 113.094C100.436 112.932 100.598 112.72 100.699 112.458C100.8 112.175 100.85 111.802 100.85 111.338V103.164C100.85 102.74 100.81 102.397 100.729 102.135C100.668 101.852 100.537 101.63 100.335 101.469C100.154 101.307 99.8914 101.196 99.5483 101.136C99.2052 101.055 98.7713 101.005 98.2466 100.984V100.379H103.726V112.307C103.726 113.114 103.857 113.649 104.12 113.911C104.382 114.153 104.907 114.274 105.694 114.274H105.875V114.789ZM116.925 105.162C116.542 103.608 116.068 102.508 115.502 101.862C114.937 101.216 114.16 100.894 113.171 100.894C112.364 100.894 111.718 101.116 111.234 101.56C110.75 101.983 110.507 102.549 110.507 103.255C110.507 104.244 111.002 105.031 111.991 105.616L115.714 107.826C116.764 108.452 117.511 109.077 117.955 109.703C118.399 110.309 118.621 111.045 118.621 111.913C118.621 112.519 118.489 113.094 118.227 113.639C117.965 114.184 117.611 114.658 117.167 115.062C116.744 115.445 116.239 115.758 115.654 116C115.069 116.222 114.443 116.333 113.777 116.333C113.414 116.333 113.02 116.303 112.596 116.242C112.172 116.202 111.708 116.121 111.204 116C110.8 115.899 110.487 115.828 110.265 115.788C110.043 115.748 109.831 115.728 109.629 115.728C109.428 115.728 109.276 115.758 109.175 115.818C109.074 115.879 108.963 115.99 108.842 116.151H108.388V110.763H108.933C109.135 111.651 109.367 112.397 109.629 113.003C109.892 113.608 110.194 114.103 110.538 114.486C110.881 114.87 111.284 115.152 111.749 115.334C112.213 115.495 112.737 115.576 113.323 115.576C114.231 115.576 114.937 115.354 115.442 114.91C115.967 114.466 116.229 113.861 116.229 113.094C116.229 112.064 115.624 111.207 114.413 110.521L112.415 109.37C111.668 108.946 111.032 108.543 110.507 108.159C110.003 107.776 109.589 107.392 109.266 107.009C108.943 106.605 108.711 106.191 108.57 105.768C108.429 105.344 108.358 104.89 108.358 104.405C108.358 103.78 108.469 103.204 108.691 102.68C108.933 102.155 109.256 101.701 109.66 101.317C110.083 100.934 110.588 100.641 111.173 100.439C111.759 100.238 112.404 100.137 113.111 100.137C113.918 100.137 114.695 100.278 115.442 100.561C115.866 100.742 116.189 100.833 116.411 100.833C116.491 100.833 116.552 100.813 116.592 100.772C116.633 100.732 116.734 100.641 116.895 100.5L116.925 100.439H117.349L117.47 105.162H116.925ZM134.272 110.914C133.989 111.459 133.727 111.933 133.485 112.337C133.263 112.72 133.041 113.074 132.819 113.396C132.617 113.699 132.405 113.972 132.183 114.214C131.961 114.456 131.719 114.678 131.457 114.88C130.246 115.849 128.903 116.333 127.43 116.333C126.482 116.333 125.604 116.151 124.796 115.788C123.989 115.405 123.293 114.87 122.708 114.184C122.142 113.497 121.698 112.69 121.375 111.762C121.053 110.833 120.891 109.804 120.891 108.674C120.891 107.241 121.133 105.929 121.618 104.738C122.122 103.527 122.839 102.538 123.767 101.771C124.473 101.186 125.22 100.752 126.007 100.47C126.815 100.167 127.632 100.016 128.459 100.016C129.186 100.016 129.872 100.117 130.518 100.318C131.164 100.5 131.729 100.752 132.213 101.075C132.698 101.398 133.081 101.782 133.364 102.226C133.646 102.649 133.788 103.104 133.788 103.588C133.788 103.992 133.626 104.345 133.303 104.647C133 104.95 132.627 105.102 132.183 105.102C131.779 105.102 131.436 104.95 131.154 104.647C130.871 104.345 130.659 103.941 130.518 103.437L130.306 102.68C130.145 102.034 129.913 101.6 129.61 101.378C129.327 101.156 128.873 101.045 128.248 101.045C127.541 101.045 126.895 101.196 126.31 101.499C125.745 101.782 125.261 102.195 124.857 102.74C124.453 103.285 124.13 103.931 123.888 104.678C123.666 105.424 123.555 106.252 123.555 107.16C123.555 108.129 123.686 109.027 123.949 109.854C124.211 110.682 124.574 111.388 125.039 111.974C125.503 112.559 126.058 113.023 126.704 113.366C127.37 113.689 128.096 113.851 128.883 113.851C129.872 113.851 130.73 113.618 131.457 113.154C132.183 112.67 132.96 111.822 133.788 110.611L134.272 110.914ZM148.107 112.367C148.107 113.134 148.178 113.669 148.319 113.972C148.46 114.254 148.733 114.396 149.136 114.396C149.6 114.396 150.105 114.184 150.65 113.76V114.638C150.065 115.284 149.55 115.728 149.106 115.97C148.662 116.212 148.147 116.333 147.562 116.333C146.856 116.333 146.331 116.141 145.988 115.758C145.665 115.354 145.463 114.688 145.382 113.76C144.333 114.668 143.415 115.324 142.627 115.728C141.84 116.131 141.073 116.333 140.327 116.333C139.237 116.333 138.349 115.99 137.663 115.304C136.997 114.618 136.664 113.729 136.664 112.64C136.664 112.095 136.764 111.55 136.966 111.005C137.188 110.44 137.501 109.986 137.905 109.643C138.268 109.32 138.601 109.047 138.904 108.825C139.227 108.583 139.64 108.341 140.145 108.099C140.65 107.836 141.306 107.544 142.113 107.221C142.92 106.898 143.99 106.464 145.322 105.919V103.709C145.322 102.76 145.09 102.044 144.625 101.56C144.181 101.075 143.536 100.833 142.688 100.833C141.982 100.833 141.386 101.005 140.902 101.348C140.438 101.671 140.206 102.064 140.206 102.528C140.206 102.71 140.226 102.942 140.266 103.225C140.327 103.507 140.357 103.739 140.357 103.921C140.357 104.325 140.195 104.668 139.873 104.95C139.57 105.233 139.217 105.374 138.813 105.374C138.409 105.374 138.056 105.233 137.753 104.95C137.471 104.647 137.33 104.294 137.33 103.891C137.33 103.447 137.451 102.993 137.693 102.528C137.955 102.064 138.308 101.65 138.752 101.287C139.217 100.883 139.832 100.571 140.599 100.349C141.386 100.127 142.234 100.016 143.142 100.016C144.192 100.016 145.069 100.197 145.776 100.561C146.502 100.904 147.057 101.388 147.441 102.014C147.683 102.417 147.855 102.892 147.956 103.437C148.056 103.961 148.107 104.678 148.107 105.586V112.367ZM145.322 106.767C144.272 107.15 143.374 107.523 142.627 107.887C141.901 108.23 141.306 108.593 140.841 108.977C140.397 109.34 140.074 109.733 139.873 110.157C139.671 110.581 139.57 111.045 139.57 111.55V111.701C139.57 112.064 139.63 112.418 139.751 112.761C139.873 113.084 140.034 113.366 140.236 113.608C140.458 113.851 140.71 114.042 140.993 114.184C141.275 114.325 141.568 114.396 141.871 114.396C142.234 114.396 142.638 114.325 143.082 114.184C143.546 114.022 143.98 113.83 144.383 113.608C144.787 113.386 145.039 113.154 145.14 112.912C145.261 112.67 145.322 112.286 145.322 111.762V106.767ZM153.284 120.238C155.181 118.926 156.129 117.695 156.129 116.545C156.129 116.404 156.079 116.293 155.978 116.212C155.897 116.131 155.796 116.091 155.675 116.091C155.635 116.091 155.605 116.091 155.584 116.091C155.564 116.091 155.504 116.111 155.403 116.151C155.302 116.172 155.191 116.192 155.07 116.212C154.949 116.232 154.828 116.242 154.707 116.242C154.061 116.242 153.556 116.081 153.193 115.758C152.85 115.435 152.678 115.011 152.678 114.486C152.678 113.901 152.86 113.427 153.223 113.063C153.607 112.68 154.101 112.488 154.707 112.488C155.494 112.488 156.15 112.781 156.674 113.366C157.199 113.951 157.461 114.678 157.461 115.546C157.461 116.595 157.108 117.594 156.402 118.543C155.695 119.512 154.757 120.289 153.586 120.874L153.284 120.238ZM183.103 110.581C182.376 112.478 181.388 113.911 180.136 114.88C178.905 115.849 177.452 116.333 175.777 116.333C174.788 116.333 173.89 116.151 173.083 115.788C172.295 115.425 171.619 114.91 171.054 114.244C170.489 113.578 170.055 112.771 169.752 111.822C169.45 110.874 169.298 109.804 169.298 108.613C169.298 107.342 169.47 106.181 169.813 105.132C170.176 104.082 170.671 103.184 171.296 102.438C171.942 101.671 172.709 101.075 173.597 100.651C174.485 100.228 175.464 100.016 176.534 100.016C177.442 100.016 178.269 100.187 179.016 100.53C179.783 100.873 180.429 101.358 180.954 101.983C181.176 102.266 181.357 102.549 181.499 102.831C181.66 103.114 181.791 103.426 181.892 103.77C182.013 104.113 182.114 104.496 182.195 104.92C182.276 105.344 182.356 105.828 182.437 106.373H171.811C171.851 107.483 171.942 108.401 172.083 109.128C172.245 109.834 172.497 110.521 172.84 111.187C173.829 113.043 175.282 113.972 177.2 113.972C178.31 113.972 179.268 113.699 180.076 113.154C180.903 112.609 181.731 111.681 182.558 110.369L183.103 110.581ZM178.925 105.223C178.703 103.729 178.34 102.7 177.835 102.135C177.351 101.549 176.584 101.257 175.535 101.257C174.465 101.257 173.627 101.57 173.022 102.195C172.437 102.821 172.053 103.83 171.872 105.223H178.925ZM184.435 93.9004C185.041 93.7591 185.575 93.638 186.04 93.5371C186.524 93.416 186.978 93.2949 187.402 93.1738C187.846 93.0527 188.27 92.9316 188.673 92.8105C189.077 92.6895 189.501 92.5482 189.945 92.3867L190.096 92.4775V113.094C190.096 113.578 190.126 113.972 190.187 114.274C190.248 114.557 190.369 114.789 190.55 114.971C190.732 115.132 190.984 115.253 191.307 115.334C191.65 115.415 192.094 115.475 192.639 115.516V116H184.526V115.516C185.071 115.455 185.515 115.384 185.858 115.304C186.201 115.203 186.473 115.062 186.675 114.88C186.877 114.678 187.008 114.426 187.069 114.123C187.15 113.82 187.19 113.437 187.19 112.973V96.5039C187.19 95.6966 187.079 95.1517 186.857 94.8691C186.655 94.5664 186.282 94.415 185.737 94.415C185.575 94.415 185.394 94.4251 185.192 94.4453C185.01 94.4453 184.829 94.4554 184.647 94.4756H184.435V93.9004ZM199.602 100.197V112.488C199.602 113.114 199.622 113.618 199.663 114.002C199.723 114.365 199.844 114.658 200.026 114.88C200.208 115.082 200.46 115.223 200.783 115.304C201.126 115.384 201.59 115.455 202.175 115.516V116H193.971V115.516C194.577 115.475 195.051 115.415 195.394 115.334C195.757 115.233 196.03 115.082 196.211 114.88C196.413 114.658 196.544 114.365 196.605 114.002C196.666 113.618 196.696 113.114 196.696 112.488V104.466C196.696 103.699 196.605 103.164 196.423 102.861C196.262 102.538 195.979 102.377 195.576 102.377C195.414 102.377 195.222 102.387 195 102.407C194.799 102.427 194.587 102.458 194.365 102.498L194.123 102.528V102.014L199.451 100.106L199.602 100.197ZM197.876 92.3867C198.361 92.3867 198.775 92.5684 199.118 92.9316C199.461 93.2747 199.632 93.6885 199.632 94.1729C199.632 94.6774 199.461 95.1012 199.118 95.4443C198.795 95.7673 198.371 95.9287 197.846 95.9287C197.342 95.9287 196.928 95.7673 196.605 95.4443C196.282 95.1012 196.121 94.6774 196.121 94.1729C196.121 93.6885 196.292 93.2747 196.635 92.9316C196.978 92.5684 197.392 92.3867 197.876 92.3867ZM216.434 102.559C216.656 103.144 216.807 103.659 216.888 104.103C216.989 104.526 217.04 105.001 217.04 105.525C217.04 106.252 216.898 106.938 216.616 107.584C216.333 108.23 215.95 108.805 215.465 109.31C214.981 109.794 214.416 110.188 213.77 110.49C213.124 110.773 212.428 110.914 211.681 110.914C211.58 110.914 211.409 110.904 211.167 110.884C210.944 110.864 210.682 110.833 210.379 110.793L209.713 110.702C209.471 110.763 209.229 110.884 208.987 111.065C208.745 111.227 208.523 111.419 208.321 111.641C208.119 111.842 207.947 112.054 207.806 112.276C207.685 112.498 207.625 112.7 207.625 112.882C207.625 113.144 207.836 113.356 208.26 113.518C208.704 113.659 209.401 113.75 210.349 113.79L214.799 114.002C216.071 114.062 217.08 114.426 217.827 115.092C218.573 115.738 218.947 116.595 218.947 117.665C218.947 118.674 218.644 119.542 218.039 120.269C217.433 121.015 216.676 121.631 215.768 122.115C214.86 122.6 213.881 122.953 212.832 123.175C211.802 123.417 210.854 123.538 209.986 123.538C209.158 123.538 208.381 123.447 207.655 123.266C206.928 123.104 206.292 122.872 205.748 122.569C205.203 122.267 204.769 121.913 204.446 121.51C204.143 121.106 203.992 120.672 203.992 120.208C203.992 119.562 204.244 118.916 204.749 118.271C205.273 117.625 206.161 116.858 207.413 115.97C206.686 115.627 206.192 115.334 205.929 115.092C205.687 114.829 205.566 114.507 205.566 114.123C205.566 113.78 205.687 113.437 205.929 113.094C206.192 112.73 206.605 112.286 207.17 111.762L208.654 110.369C207.483 109.804 206.646 109.168 206.141 108.462C205.657 107.735 205.415 106.827 205.415 105.737C205.415 104.95 205.566 104.214 205.869 103.527C206.171 102.821 206.575 102.215 207.08 101.711C207.604 101.186 208.22 100.772 208.926 100.47C209.633 100.167 210.379 100.016 211.167 100.016C212.095 100.016 213.023 100.187 213.952 100.53L214.739 100.833C215.082 100.954 215.395 101.065 215.677 101.166C215.98 101.247 216.303 101.287 216.646 101.287H219.31V102.559H216.434ZM208.139 116.091C207.796 116.494 207.514 116.838 207.292 117.12C207.069 117.403 206.898 117.655 206.777 117.877C206.656 118.099 206.565 118.301 206.504 118.482C206.464 118.664 206.444 118.856 206.444 119.058C206.444 119.825 206.888 120.43 207.776 120.874C208.684 121.338 209.905 121.57 211.439 121.57C212.428 121.57 213.326 121.49 214.133 121.328C214.941 121.167 215.627 120.935 216.192 120.632C216.777 120.349 217.221 119.996 217.524 119.572C217.847 119.169 218.008 118.715 218.008 118.21C218.008 117.584 217.685 117.15 217.04 116.908C216.394 116.666 215.294 116.545 213.74 116.545C213.316 116.545 212.832 116.525 212.287 116.484C211.762 116.464 211.237 116.434 210.712 116.394C210.208 116.353 209.723 116.303 209.259 116.242C208.815 116.202 208.442 116.151 208.139 116.091ZM208.291 104.436C208.291 105.263 208.371 106.03 208.533 106.736C208.714 107.423 208.957 108.018 209.259 108.522C209.582 109.007 209.956 109.39 210.379 109.673C210.823 109.935 211.318 110.066 211.863 110.066C212.63 110.066 213.245 109.784 213.709 109.219C214.174 108.633 214.406 107.856 214.406 106.888C214.406 106.181 214.315 105.465 214.133 104.738C213.972 104.012 213.73 103.346 213.407 102.74C213.124 102.195 212.761 101.771 212.317 101.469C211.873 101.146 211.389 100.984 210.864 100.984C210.056 100.984 209.421 101.287 208.957 101.893C208.513 102.498 208.291 103.305 208.291 104.314V104.436ZM234.992 110.581C234.265 112.478 233.276 113.911 232.025 114.88C230.794 115.849 229.341 116.333 227.666 116.333C226.677 116.333 225.778 116.151 224.971 115.788C224.184 115.425 223.508 114.91 222.943 114.244C222.378 113.578 221.944 112.771 221.641 111.822C221.338 110.874 221.187 109.804 221.187 108.613C221.187 107.342 221.359 106.181 221.702 105.132C222.065 104.082 222.559 103.184 223.185 102.438C223.831 101.671 224.598 101.075 225.486 100.651C226.374 100.228 227.353 100.016 228.422 100.016C229.331 100.016 230.158 100.187 230.905 100.53C231.672 100.873 232.318 101.358 232.842 101.983C233.064 102.266 233.246 102.549 233.387 102.831C233.549 103.114 233.68 103.426 233.781 103.77C233.902 104.113 234.003 104.496 234.083 104.92C234.164 105.344 234.245 105.828 234.326 106.373H223.7C223.74 107.483 223.831 108.401 223.972 109.128C224.134 109.834 224.386 110.521 224.729 111.187C225.718 113.043 227.171 113.972 229.088 113.972C230.198 113.972 231.157 113.699 231.964 113.154C232.792 112.609 233.619 111.681 234.447 110.369L234.992 110.581ZM230.814 105.223C230.592 103.729 230.229 102.7 229.724 102.135C229.24 101.549 228.473 101.257 227.423 101.257C226.354 101.257 225.516 101.57 224.911 102.195C224.325 102.821 223.942 103.83 223.76 105.223H230.814ZM238.231 120.238C240.128 118.926 241.077 117.695 241.077 116.545C241.077 116.404 241.026 116.293 240.925 116.212C240.845 116.131 240.744 116.091 240.623 116.091C240.582 116.091 240.552 116.091 240.532 116.091C240.512 116.091 240.451 116.111 240.35 116.151C240.249 116.172 240.138 116.192 240.017 116.212C239.896 116.232 239.775 116.242 239.654 116.242C239.008 116.242 238.503 116.081 238.14 115.758C237.797 115.435 237.625 115.011 237.625 114.486C237.625 113.901 237.807 113.427 238.17 113.063C238.554 112.68 239.048 112.488 239.654 112.488C240.441 112.488 241.097 112.781 241.622 113.366C242.146 113.951 242.409 114.678 242.409 115.546C242.409 116.595 242.056 117.594 241.349 118.543C240.643 119.512 239.704 120.289 238.534 120.874L238.231 120.238Z"
        fill="#F4F9FF" />
    <path
        d="M254.034 93.9004C254.639 93.7591 255.174 93.638 255.638 93.5371C256.123 93.416 256.577 93.2949 257 93.1738C257.444 93.0527 257.868 92.9316 258.272 92.8105C258.676 92.6895 259.099 92.5482 259.543 92.3867L259.695 92.4775V113.094C259.695 113.578 259.725 113.972 259.786 114.274C259.846 114.557 259.967 114.789 260.149 114.971C260.331 115.132 260.583 115.253 260.906 115.334C261.249 115.415 261.693 115.475 262.238 115.516V116H254.125V115.516C254.669 115.455 255.113 115.384 255.457 115.304C255.8 115.203 256.072 115.062 256.274 114.88C256.476 114.678 256.607 114.426 256.667 114.123C256.748 113.82 256.789 113.437 256.789 112.973V96.5039C256.789 95.6966 256.678 95.1517 256.456 94.8691C256.254 94.5664 255.88 94.415 255.335 94.415C255.174 94.415 254.992 94.4251 254.791 94.4453C254.609 94.4453 254.427 94.4554 254.246 94.4756H254.034V93.9004ZM277.677 110.581C276.951 112.478 275.962 113.911 274.71 114.88C273.479 115.849 272.026 116.333 270.351 116.333C269.362 116.333 268.464 116.151 267.657 115.788C266.87 115.425 266.194 114.91 265.628 114.244C265.063 113.578 264.629 112.771 264.327 111.822C264.024 110.874 263.873 109.804 263.873 108.613C263.873 107.342 264.044 106.181 264.387 105.132C264.75 104.082 265.245 103.184 265.871 102.438C266.516 101.671 267.283 101.075 268.171 100.651C269.059 100.228 270.038 100.016 271.108 100.016C272.016 100.016 272.844 100.187 273.59 100.53C274.357 100.873 275.003 101.358 275.528 101.983C275.75 102.266 275.931 102.549 276.073 102.831C276.234 103.114 276.365 103.426 276.466 103.77C276.587 104.113 276.688 104.496 276.769 104.92C276.85 105.344 276.931 105.828 277.011 106.373H266.385C266.426 107.483 266.516 108.401 266.658 109.128C266.819 109.834 267.071 110.521 267.415 111.187C268.403 113.043 269.857 113.972 271.774 113.972C272.884 113.972 273.843 113.699 274.65 113.154C275.477 112.609 276.305 111.681 277.132 110.369L277.677 110.581ZM273.5 105.223C273.278 103.729 272.914 102.7 272.41 102.135C271.925 101.549 271.158 101.257 270.109 101.257C269.039 101.257 268.202 101.57 267.596 102.195C267.011 102.821 266.627 103.83 266.446 105.223H273.5ZM293.026 110.581C292.299 112.478 291.31 113.911 290.059 114.88C288.828 115.849 287.375 116.333 285.7 116.333C284.711 116.333 283.813 116.151 283.005 115.788C282.218 115.425 281.542 114.91 280.977 114.244C280.412 113.578 279.978 112.771 279.675 111.822C279.373 110.874 279.221 109.804 279.221 108.613C279.221 107.342 279.393 106.181 279.736 105.132C280.099 104.082 280.594 103.184 281.219 102.438C281.865 101.671 282.632 101.075 283.52 100.651C284.408 100.228 285.387 100.016 286.457 100.016C287.365 100.016 288.192 100.187 288.939 100.53C289.706 100.873 290.352 101.358 290.876 101.983C291.098 102.266 291.28 102.549 291.421 102.831C291.583 103.114 291.714 103.426 291.815 103.77C291.936 104.113 292.037 104.496 292.118 104.92C292.198 105.344 292.279 105.828 292.36 106.373H281.734C281.774 107.483 281.865 108.401 282.006 109.128C282.168 109.834 282.42 110.521 282.763 111.187C283.752 113.043 285.205 113.972 287.123 113.972C288.233 113.972 289.191 113.699 289.999 113.154C290.826 112.609 291.653 111.681 292.481 110.369L293.026 110.581ZM288.848 105.223C288.626 103.729 288.263 102.7 287.758 102.135C287.274 101.549 286.507 101.257 285.458 101.257C284.388 101.257 283.55 101.57 282.945 102.195C282.36 102.821 281.976 103.83 281.794 105.223H288.848Z"
        fill="#6BA8F0" />
</svg>