<svg width="283" height="40" viewBox="0 0 283 40" fill="none" xmlns="http://www.w3.org/2000/svg">
<path d="M33.123 39.6475L7.97168 8.37012V30.6328C7.97168 32.0938 8.03809 33.2891 8.1709 34.2188C8.33691 35.1152 8.61914 35.8291 9.01758 36.3604C9.41602 36.8916 9.96387 37.2734 10.6611 37.5059C11.3584 37.7383 12.2549 37.8877 13.3506 37.9541V39H0.00292969V37.9541C1.16504 37.8545 2.09473 37.7051 2.79199 37.5059C3.52246 37.2734 4.07031 36.8916 4.43555 36.3604C4.83398 35.8291 5.09961 35.1152 5.23242 34.2188C5.36523 33.2891 5.43164 32.0938 5.43164 30.6328V5.63086C4.86719 4.9668 4.38574 4.43555 3.9873 4.03711C3.58887 3.60547 3.19043 3.29004 2.79199 3.09082C2.39355 2.8584 1.97852 2.70898 1.54688 2.64258C1.11523 2.54297 0.600586 2.49316 0.00292969 2.49316V1.34766H9.71484L31.5791 28.8896V9.71484C31.5791 6.26172 31.0312 4.13672 29.9355 3.33984C29.5039 3.07422 29.0225 2.8916 28.4912 2.79199C27.9932 2.65918 27.2129 2.55957 26.1504 2.49316V1.34766H39.4482V2.49316C38.3857 2.55957 37.5889 2.67578 37.0576 2.8418C36.5596 3.00781 36.1279 3.22363 35.7627 3.48926C34.6338 4.21973 34.0693 6.29492 34.0693 9.71484V39.6475H33.123ZM64.4502 30.085C63.2549 33.2061 61.6279 35.5635 59.5693 37.1572C57.5439 38.751 55.1533 39.5479 52.3975 39.5479C50.7705 39.5479 49.293 39.249 47.9648 38.6514C46.6699 38.0537 45.5576 37.207 44.6279 36.1113C43.6982 35.0156 42.9844 33.6875 42.4863 32.127C41.9883 30.5664 41.7393 28.8066 41.7393 26.8477C41.7393 24.7559 42.0215 22.8467 42.5859 21.1201C43.1836 19.3936 43.9971 17.916 45.0264 16.6875C46.0889 15.4258 47.3506 14.4463 48.8115 13.749C50.2725 13.0518 51.8828 12.7031 53.6426 12.7031C55.1367 12.7031 56.498 12.9854 57.7266 13.5498C58.9883 14.1143 60.0508 14.9111 60.9141 15.9404C61.2793 16.4053 61.5781 16.8701 61.8105 17.335C62.0762 17.7998 62.292 18.3145 62.458 18.8789C62.6572 19.4434 62.8232 20.0742 62.9561 20.7715C63.0889 21.4688 63.2217 22.2656 63.3545 23.1621H45.873C45.9395 24.9883 46.0889 26.499 46.3213 27.6943C46.5869 28.8564 47.002 29.9854 47.5664 31.0811C49.1934 34.1357 51.584 35.6631 54.7383 35.6631C56.5645 35.6631 58.1416 35.2148 59.4697 34.3184C60.8311 33.4219 62.1924 31.8945 63.5537 29.7363L64.4502 30.085ZM57.5771 21.2695C57.2119 18.8125 56.6143 17.1191 55.7842 16.1895C54.9873 15.2266 53.7256 14.7451 51.999 14.7451C50.2393 14.7451 48.8613 15.2598 47.8652 16.2891C46.9023 17.3184 46.2715 18.9785 45.9727 21.2695H57.5771ZM105.091 13.4004V14.2969C104.792 14.3965 104.543 14.4961 104.344 14.5957C104.178 14.6953 104.012 14.8447 103.846 15.0439C103.68 15.2432 103.514 15.5254 103.348 15.8906C103.182 16.2559 102.966 16.7373 102.7 17.335L94.8809 37.0078C94.6484 37.5723 94.4492 38.0371 94.2832 38.4023C94.1504 38.7676 94.0176 39.0498 93.8848 39.249C93.7852 39.4482 93.6855 39.5811 93.5859 39.6475C93.4863 39.7471 93.3867 39.7969 93.2871 39.7969C93.0879 39.7969 92.9219 39.6475 92.7891 39.3486C92.6562 39.083 92.3574 38.4189 91.8926 37.3564L86.7627 23.959L80.3379 37.6055C79.6738 39.0664 79.209 39.7969 78.9434 39.7969C78.6113 39.7969 78.1133 38.9668 77.4492 37.3066L69.7793 17.833C69.4805 17.1025 69.2148 16.5215 68.9824 16.0898C68.75 15.625 68.5176 15.2764 68.2852 15.0439C68.0859 14.7783 67.8701 14.5957 67.6377 14.4961C67.4053 14.3965 67.123 14.3301 66.791 14.2969V13.4004H77.001V14.2969C76.0049 14.4297 75.3076 14.6289 74.9092 14.8945C74.5439 15.127 74.3613 15.542 74.3613 16.1396C74.3613 16.6709 74.4941 17.2354 74.7598 17.833L80.3379 32.7246L85.5674 21.3691L84.4219 18.1816C84.123 17.418 83.8408 16.8037 83.5752 16.3389C83.3428 15.8408 83.0771 15.459 82.7783 15.1934C82.5127 14.9277 82.1973 14.7285 81.832 14.5957C81.4668 14.4629 81.0186 14.3633 80.4873 14.2969V13.4004H91.9922V14.2969C90.6973 14.4629 89.834 14.6953 89.4023 14.9941C88.9707 15.2598 88.7549 15.6914 88.7549 16.2891C88.7549 16.4883 88.7549 16.6543 88.7549 16.7871C88.7881 16.8867 88.8213 17.0527 88.8545 17.2852C88.9209 17.4844 89.0205 17.7666 89.1533 18.1318C89.2861 18.4971 89.4688 19.0117 89.7012 19.6758L94.4824 32.4258L99.6123 19.7754C99.9443 19.0117 100.177 18.3145 100.31 17.6836C100.476 17.0195 100.559 16.4551 100.559 15.9902C100.559 15.5254 100.376 15.1768 100.011 14.9443C99.6455 14.6787 98.9814 14.4629 98.0186 14.2969V13.4004H105.091ZM123.618 21.1699C122.987 18.6133 122.207 16.8037 121.277 15.7412C120.348 14.6787 119.069 14.1475 117.442 14.1475C116.114 14.1475 115.052 14.5127 114.255 15.2432C113.458 15.9404 113.06 16.8701 113.06 18.0322C113.06 19.6592 113.873 20.9541 115.5 21.917L121.626 25.5527C123.353 26.582 124.581 27.6113 125.312 28.6406C126.042 29.6367 126.407 30.8486 126.407 32.2764C126.407 33.2725 126.191 34.2188 125.76 35.1152C125.328 36.0117 124.747 36.792 124.017 37.4561C123.319 38.0869 122.489 38.6016 121.526 39C120.563 39.3652 119.534 39.5479 118.438 39.5479C117.841 39.5479 117.193 39.498 116.496 39.3984C115.799 39.332 115.035 39.1992 114.205 39C113.541 38.834 113.026 38.7178 112.661 38.6514C112.296 38.585 111.947 38.5518 111.615 38.5518C111.283 38.5518 111.034 38.6016 110.868 38.7012C110.702 38.8008 110.52 38.9834 110.32 39.249H109.573V30.3838H110.47C110.802 31.8447 111.184 33.0732 111.615 34.0693C112.047 35.0654 112.545 35.8789 113.109 36.5098C113.674 37.1406 114.338 37.6055 115.102 37.9043C115.865 38.1699 116.729 38.3027 117.691 38.3027C119.186 38.3027 120.348 37.9375 121.178 37.207C122.041 36.4766 122.473 35.4805 122.473 34.2188C122.473 32.5254 121.477 31.1143 119.484 29.9854L116.197 28.0928C114.969 27.3955 113.923 26.7314 113.06 26.1006C112.229 25.4697 111.549 24.8389 111.018 24.208C110.486 23.5439 110.104 22.8633 109.872 22.166C109.64 21.4688 109.523 20.7217 109.523 19.9248C109.523 18.8955 109.706 17.9492 110.071 17.0859C110.47 16.2227 111.001 15.4756 111.665 14.8447C112.362 14.2139 113.192 13.7324 114.155 13.4004C115.118 13.0684 116.181 12.9023 117.343 12.9023C118.671 12.9023 119.949 13.1348 121.178 13.5996C121.875 13.8984 122.406 14.0479 122.771 14.0479C122.904 14.0479 123.004 14.0146 123.07 13.9482C123.137 13.8818 123.303 13.7324 123.568 13.5L123.618 13.4004H124.315L124.515 21.1699H123.618Z" fill="#6BA8F0"/>
<path d="M160.573 1.34766C165.521 1.34766 169.239 2.16113 171.729 3.78809C174.22 5.41504 175.465 7.82227 175.465 11.0098C175.465 12.1719 175.266 13.2676 174.867 14.2969C174.469 15.293 173.904 16.1064 173.174 16.7373C172.809 17.0361 172.46 17.3018 172.128 17.5342C171.796 17.7666 171.414 17.9824 170.982 18.1816C170.584 18.3477 170.103 18.5137 169.538 18.6797C169.007 18.8457 168.376 19.0283 167.646 19.2275C168.575 19.4268 169.372 19.626 170.036 19.8252C170.733 20.0244 171.348 20.2568 171.879 20.5225C172.41 20.7549 172.892 21.0205 173.323 21.3193C173.755 21.6182 174.187 21.9668 174.618 22.3652C176.478 24.0254 177.407 26.167 177.407 28.79C177.407 30.3838 177.092 31.8115 176.461 33.0732C175.83 34.335 174.917 35.4141 173.722 36.3105C172.526 37.1738 171.082 37.8379 169.389 38.3027C167.695 38.7676 165.786 39 163.661 39H144.636V37.9541C145.798 37.9209 146.728 37.8379 147.425 37.7051C148.155 37.5391 148.72 37.2734 149.118 36.9082C149.517 36.543 149.782 36.0449 149.915 35.4141C150.048 34.75 150.114 33.9033 150.114 32.874V7.57324C150.114 6.51074 150.048 5.66406 149.915 5.0332C149.815 4.40234 149.566 3.9043 149.168 3.53906C148.77 3.17383 148.205 2.9248 147.475 2.79199C146.777 2.65918 145.831 2.55957 144.636 2.49316V1.34766H160.573ZM155.842 34.5674C155.842 35.4971 156.091 36.1279 156.589 36.46C157.087 36.7588 158 36.9082 159.328 36.9082C160.324 36.9082 161.204 36.8916 161.968 36.8584C162.765 36.792 163.479 36.709 164.109 36.6094C164.773 36.4766 165.371 36.3105 165.902 36.1113C166.434 35.9121 166.932 35.6797 167.396 35.4141C169.721 34.0859 170.883 31.8945 170.883 28.8398C170.883 25.2539 169.239 22.8301 165.952 21.5684C165.421 21.3691 164.84 21.2031 164.209 21.0703C163.611 20.9375 162.914 20.8379 162.117 20.7715C161.354 20.6719 160.457 20.6055 159.428 20.5723C158.398 20.5059 157.203 20.4727 155.842 20.4727V34.5674ZM161.32 18.1816C164.01 18.1816 166.068 17.6006 167.496 16.4385C168.957 15.2432 169.688 13.5166 169.688 11.2588C169.688 8.66895 168.841 6.72656 167.147 5.43164C165.454 4.13672 162.947 3.48926 159.627 3.48926H157.137C156.273 3.48926 155.842 4.05371 155.842 5.18262V18.1816H161.32ZM195.785 12.8525C197.611 12.8525 199.288 13.168 200.815 13.7988C202.343 14.4297 203.654 15.3262 204.75 16.4883C205.879 17.6172 206.759 18.9619 207.39 20.5225C208.021 22.083 208.336 23.8096 208.336 25.7021C208.336 27.6943 208.004 29.5371 207.34 31.2305C206.709 32.8906 205.829 34.3516 204.7 35.6133C203.571 36.8418 202.227 37.8047 200.666 38.502C199.139 39.1992 197.479 39.5479 195.686 39.5479C193.893 39.5479 192.232 39.2158 190.705 38.5518C189.178 37.8877 187.866 36.958 186.771 35.7627C185.675 34.5674 184.812 33.1562 184.181 31.5293C183.55 29.9023 183.234 28.126 183.234 26.2002C183.234 24.2412 183.533 22.4482 184.131 20.8213C184.762 19.1611 185.625 17.75 186.721 16.5879C187.816 15.3926 189.128 14.4795 190.655 13.8486C192.216 13.1846 193.926 12.8525 195.785 12.8525ZM194.938 14.4463C192.946 14.4463 191.353 15.2598 190.157 16.8867C188.962 18.5137 188.364 20.6719 188.364 23.3613C188.364 25.3867 188.58 27.3623 189.012 29.2881C189.443 31.1807 190.058 32.874 190.854 34.3682C191.452 35.5303 192.249 36.4268 193.245 37.0576C194.241 37.6885 195.32 38.0039 196.482 38.0039C198.574 38.0039 200.201 37.0908 201.363 35.2646C202.559 33.4053 203.156 30.8652 203.156 27.6445C203.156 25.2207 202.808 22.9629 202.11 20.8711C201.413 18.7793 200.467 17.2021 199.271 16.1396C198.641 15.542 197.977 15.1104 197.279 14.8447C196.582 14.5791 195.802 14.4463 194.938 14.4463ZM230.947 33.0234C230.947 34.2852 231.063 35.165 231.296 35.6631C231.528 36.1279 231.977 36.3604 232.641 36.3604C233.404 36.3604 234.234 36.0117 235.131 35.3145V36.7588C234.168 37.8213 233.321 38.5518 232.591 38.9502C231.86 39.3486 231.014 39.5479 230.051 39.5479C228.889 39.5479 228.025 39.2324 227.461 38.6016C226.93 37.9375 226.598 36.8418 226.465 35.3145C224.738 36.8086 223.228 37.8877 221.933 38.5518C220.638 39.2158 219.376 39.5479 218.147 39.5479C216.354 39.5479 214.894 38.9834 213.765 37.8545C212.669 36.7256 212.121 35.2646 212.121 33.4717C212.121 32.5752 212.287 31.6787 212.619 30.7822C212.984 29.8525 213.499 29.1055 214.163 28.541C214.761 28.0098 215.309 27.5615 215.807 27.1963C216.338 26.7979 217.019 26.3994 217.849 26.001C218.679 25.5693 219.758 25.0879 221.086 24.5566C222.414 24.0254 224.174 23.3115 226.365 22.415V18.7793C226.365 17.2188 225.983 16.04 225.22 15.2432C224.489 14.4463 223.427 14.0479 222.032 14.0479C220.87 14.0479 219.891 14.3301 219.094 14.8945C218.33 15.4258 217.948 16.0732 217.948 16.8369C217.948 17.1357 217.981 17.5176 218.048 17.9824C218.147 18.4473 218.197 18.8291 218.197 19.1279C218.197 19.792 217.932 20.3564 217.4 20.8213C216.902 21.2861 216.321 21.5186 215.657 21.5186C214.993 21.5186 214.412 21.2861 213.914 20.8213C213.449 20.3232 213.217 19.7422 213.217 19.0781C213.217 18.3477 213.416 17.6006 213.814 16.8369C214.246 16.0732 214.827 15.3926 215.558 14.7949C216.321 14.1309 217.334 13.6162 218.596 13.251C219.891 12.8857 221.285 12.7031 222.779 12.7031C224.506 12.7031 225.95 13.002 227.112 13.5996C228.308 14.1641 229.221 14.9609 229.852 15.9902C230.25 16.6543 230.532 17.4346 230.698 18.3311C230.864 19.1943 230.947 20.373 230.947 21.8672V33.0234ZM226.365 23.8096C224.639 24.4404 223.161 25.0547 221.933 25.6523C220.737 26.2168 219.758 26.8145 218.994 27.4453C218.264 28.043 217.732 28.6904 217.4 29.3877C217.068 30.085 216.902 30.8486 216.902 31.6787V31.9277C216.902 32.5254 217.002 33.1064 217.201 33.6709C217.4 34.2021 217.666 34.667 217.998 35.0654C218.363 35.4639 218.778 35.7793 219.243 36.0117C219.708 36.2441 220.189 36.3604 220.688 36.3604C221.285 36.3604 221.949 36.2441 222.68 36.0117C223.443 35.7461 224.157 35.4307 224.821 35.0654C225.485 34.7002 225.9 34.3184 226.066 33.9199C226.266 33.5215 226.365 32.8906 226.365 32.0273V23.8096ZM235.679 15.9902C236.509 15.6914 237.272 15.4258 237.97 15.1934C238.667 14.9277 239.331 14.6787 239.962 14.4463C240.626 14.1807 241.273 13.9316 241.904 13.6992C242.568 13.4336 243.282 13.1514 244.046 12.8525L244.395 12.9521V18.1816C245.092 17.1523 245.723 16.3057 246.287 15.6416C246.852 14.9443 247.399 14.3965 247.931 13.998C248.462 13.5664 248.977 13.2676 249.475 13.1016C250.006 12.9355 250.57 12.8525 251.168 12.8525C252.131 12.8525 252.895 13.1348 253.459 13.6992C254.023 14.2305 254.306 14.9443 254.306 15.8408C254.306 16.6709 254.106 17.3184 253.708 17.7832C253.31 18.2148 252.778 18.4307 252.114 18.4307C251.749 18.4307 251.384 18.3643 251.019 18.2314C250.687 18.0654 250.288 17.75 249.823 17.2852C249.524 17.0195 249.242 16.8203 248.977 16.6875C248.711 16.5547 248.495 16.4883 248.329 16.4883C247.931 16.4883 247.499 16.6543 247.034 16.9863C246.603 17.2852 246.188 17.667 245.789 18.1318C245.391 18.5967 245.059 19.0947 244.793 19.626C244.527 20.1572 244.395 20.6553 244.395 21.1201V33.9199C244.395 34.7168 244.461 35.3809 244.594 35.9121C244.727 36.4434 244.976 36.875 245.341 37.207C245.706 37.5059 246.204 37.7383 246.835 37.9043C247.466 38.0703 248.263 38.1699 249.226 38.2031V39H235.529V38.2031C236.426 38.0371 237.14 37.8711 237.671 37.7051C238.235 37.5059 238.65 37.2734 238.916 37.0078C239.215 36.7422 239.397 36.3936 239.464 35.9619C239.563 35.4971 239.613 34.916 239.613 34.2188V20.0244C239.613 18.7627 239.464 17.8828 239.165 17.3848C238.866 16.8535 238.368 16.5879 237.671 16.5879C237.306 16.5879 236.974 16.6045 236.675 16.6377C236.409 16.6709 236.077 16.7373 235.679 16.8369V15.9902ZM273.58 39.3984V35.7129C272.617 37.1074 271.555 38.1035 270.393 38.7012C269.264 39.2656 267.902 39.5479 266.309 39.5479C264.715 39.5479 263.271 39.2656 261.976 38.7012C260.681 38.1035 259.568 37.2734 258.639 36.2109C257.742 35.1152 257.028 33.8203 256.497 32.3262C255.999 30.832 255.75 29.1719 255.75 27.3457C255.75 25.3203 256.065 23.4277 256.696 21.668C257.327 19.9082 258.174 18.3643 259.236 17.0361C260.299 15.708 261.544 14.6621 262.972 13.8984C264.433 13.1348 265.977 12.7529 267.604 12.7529C268.766 12.7529 269.778 12.9355 270.642 13.3008C271.505 13.6328 272.484 14.2637 273.58 15.1934V6.42773C273.58 5.26562 273.397 4.48535 273.032 4.08691C272.7 3.68848 272.003 3.48926 270.94 3.48926C270.708 3.48926 270.492 3.50586 270.293 3.53906C270.127 3.53906 269.928 3.55566 269.695 3.58887V2.59277C270.592 2.36035 271.405 2.16113 272.136 1.99512C272.866 1.7959 273.547 1.61328 274.178 1.44727C274.842 1.24805 275.473 1.04883 276.07 0.849609C276.701 0.650391 277.365 0.417969 278.062 0.152344L278.361 0.301758V32.5254C278.361 33.8535 278.511 34.7334 278.81 35.165C279.142 35.5635 279.822 35.7627 280.852 35.7627C281.018 35.7627 281.217 35.7627 281.449 35.7627C281.715 35.7295 281.964 35.7129 282.196 35.7129V36.6094L273.829 39.5479L273.58 39.3984ZM273.58 20.0244C273.58 19.2939 273.414 18.5967 273.082 17.9326C272.783 17.2354 272.368 16.6211 271.837 16.0898C271.306 15.5586 270.675 15.1436 269.944 14.8447C269.247 14.5127 268.517 14.3467 267.753 14.3467C266.69 14.3467 265.711 14.6123 264.814 15.1436C263.951 15.6416 263.204 16.3721 262.573 17.335C261.976 18.2646 261.511 19.3936 261.179 20.7217C260.847 22.0166 260.681 23.4609 260.681 25.0547C260.681 26.8145 260.863 28.4082 261.229 29.8359C261.594 31.2637 262.108 32.4756 262.772 33.4717C263.47 34.4678 264.3 35.248 265.263 35.8125C266.226 36.3438 267.305 36.6094 268.5 36.6094C270.293 36.6094 271.688 36.0117 272.684 34.8164C273.281 34.1523 273.58 33.6211 273.58 33.2227V20.0244Z" fill="#F4F9FF"/>
</svg>
