<svg width="115" height="104" viewBox="0 0 115 104" fill="none" xmlns="http://www.w3.org/2000/svg">
    <rect width="115" height="104" rx="12" fill="#18202B" />
    <path
        d="M51.8174 67.6475L26.666 36.3701V58.6328C26.666 60.0938 26.7324 61.2891 26.8652 62.2188C27.0312 63.1152 27.3135 63.8291 27.7119 64.3604C28.1104 64.8916 28.6582 65.2734 29.3555 65.5059C30.0527 65.7383 30.9492 65.8877 32.0449 65.9541V67H18.6973V65.9541C19.8594 65.8545 20.7891 65.7051 21.4863 65.5059C22.2168 65.2734 22.7646 64.8916 23.1299 64.3604C23.5283 63.8291 23.7939 63.1152 23.9268 62.2188C24.0596 61.2891 24.126 60.0938 24.126 58.6328V33.6309C23.5615 32.9668 23.0801 32.4355 22.6816 32.0371C22.2832 31.6055 21.8848 31.29 21.4863 31.0908C21.0879 30.8584 20.6729 30.709 20.2412 30.6426C19.8096 30.543 19.2949 30.4932 18.6973 30.4932V29.3477H28.4092L50.2734 56.8896V37.7148C50.2734 34.2617 49.7256 32.1367 48.6299 31.3398C48.1982 31.0742 47.7168 30.8916 47.1855 30.792C46.6875 30.6592 45.9072 30.5596 44.8447 30.4932V29.3477H58.1426V30.4932C57.0801 30.5596 56.2832 30.6758 55.752 30.8418C55.2539 31.0078 54.8223 31.2236 54.457 31.4893C53.3281 32.2197 52.7637 34.2949 52.7637 37.7148V67.6475H51.8174ZM75.9229 29.3477C80.8701 29.3477 84.5889 30.1611 87.0791 31.7881C89.5693 33.415 90.8145 35.8223 90.8145 39.0098C90.8145 40.1719 90.6152 41.2676 90.2168 42.2969C89.8184 43.293 89.2539 44.1064 88.5234 44.7373C88.1582 45.0361 87.8096 45.3018 87.4775 45.5342C87.1455 45.7666 86.7637 45.9824 86.332 46.1816C85.9336 46.3477 85.4521 46.5137 84.8877 46.6797C84.3564 46.8457 83.7256 47.0283 82.9951 47.2275C83.9248 47.4268 84.7217 47.626 85.3857 47.8252C86.083 48.0244 86.6973 48.2568 87.2285 48.5225C87.7598 48.7549 88.2412 49.0205 88.6729 49.3193C89.1045 49.6182 89.5361 49.9668 89.9678 50.3652C91.8271 52.0254 92.7568 54.167 92.7568 56.79C92.7568 58.3838 92.4414 59.8115 91.8105 61.0732C91.1797 62.335 90.2666 63.4141 89.0713 64.3105C87.876 65.1738 86.4316 65.8379 84.7383 66.3027C83.0449 66.7676 81.1357 67 79.0107 67H59.9854V65.9541C61.1475 65.9209 62.0771 65.8379 62.7744 65.7051C63.5049 65.5391 64.0693 65.2734 64.4678 64.9082C64.8662 64.543 65.1318 64.0449 65.2646 63.4141C65.3975 62.75 65.4639 61.9033 65.4639 60.874V35.5732C65.4639 34.5107 65.3975 33.6641 65.2646 33.0332C65.165 32.4023 64.916 31.9043 64.5176 31.5391C64.1191 31.1738 63.5547 30.9248 62.8242 30.792C62.127 30.6592 61.1807 30.5596 59.9854 30.4932V29.3477H75.9229ZM71.1914 62.5674C71.1914 63.4971 71.4404 64.1279 71.9385 64.46C72.4365 64.7588 73.3496 64.9082 74.6777 64.9082C75.6738 64.9082 76.5537 64.8916 77.3174 64.8584C78.1143 64.792 78.8281 64.709 79.459 64.6094C80.123 64.4766 80.7207 64.3105 81.252 64.1113C81.7832 63.9121 82.2812 63.6797 82.7461 63.4141C85.0703 62.0859 86.2324 59.8945 86.2324 56.8398C86.2324 53.2539 84.5889 50.8301 81.3018 49.5684C80.7705 49.3691 80.1895 49.2031 79.5586 49.0703C78.9609 48.9375 78.2637 48.8379 77.4668 48.7715C76.7031 48.6719 75.8066 48.6055 74.7773 48.5723C73.748 48.5059 72.5527 48.4727 71.1914 48.4727V62.5674ZM76.6699 46.1816C79.3594 46.1816 81.418 45.6006 82.8457 44.4385C84.3066 43.2432 85.0371 41.5166 85.0371 39.2588C85.0371 36.6689 84.1904 34.7266 82.4971 33.4316C80.8037 32.1367 78.2969 31.4893 74.9766 31.4893H72.4863C71.623 31.4893 71.1914 32.0537 71.1914 33.1826V46.1816H76.6699Z"
        fill="#6BA8F0" />
</svg>